<svg width="70" height="80" viewBox="0 0 70 80" fill="none" xmlns="http://www.w3.org/2000/svg">
<g filter="url(#filter0_d_1734_930)">
<path d="M36.2468 30.9671C37.0598 32.0997 37.4968 33.4568 37.4968 34.8487V36.1916C37.9253 36.1916 38.3414 36.0491 38.6791 35.7867C39.0168 35.5243 39.2567 35.1571 39.3606 34.7435L39.4968 34.2013L39.8663 34.6426C40.4621 35.354 40.7854 36.2524 40.7789 37.1784C40.7725 38.1044 40.4367 38.9982 39.8311 39.7013C39.6041 39.9647 39.4855 40.3037 39.4988 40.6505C39.5122 40.9973 39.6565 41.3262 39.9031 41.5716C40.0407 41.7086 40.2059 41.8152 40.3877 41.8843C40.5696 41.9535 40.7641 41.9837 40.9584 41.973C41.1528 41.9623 41.3427 41.9109 41.5158 41.8221C41.6889 41.7334 41.8412 41.6094 41.9628 41.4581L42.9968 40.1722L43.9968 42.6601C44.4503 44.1643 44.486 45.7626 44.1002 47.2854C43.7144 48.8082 42.9215 50.1986 41.8056 51.3091L41.6795 51.4346C39.9619 53.1439 37.6322 54.1042 35.2031 54.1043H34.1828C32.6011 54.1043 31.0464 53.6967 29.67 52.9212C28.2936 52.1457 27.1425 51.0287 26.3287 49.679C25.3543 48.0628 24.9073 46.1858 25.0492 44.3063C25.1911 42.4268 25.915 40.6374 27.1213 39.1843L31.169 34.3081C31.5679 33.8276 31.8242 33.2459 31.9093 32.6284C31.9943 32.011 31.9046 31.3821 31.6503 30.8126C31.3276 30.0901 31.2719 29.2774 31.4932 28.5181C31.7144 27.7587 32.1983 27.1017 32.8593 26.6631L34.9968 25.245V27.0855C34.9968 28.4774 35.4339 29.8345 36.2468 30.9671Z" fill="url(#paint0_linear_1734_930)"/>
<path d="M38.689 50.7091L38.6934 50.7047C39.4711 49.9248 40.026 48.9528 40.3009 47.8887C40.5758 46.8246 40.5608 45.7069 40.2575 44.6504L38.8029 46.098C38.6657 46.2346 38.5027 46.343 38.3233 46.4169C38.144 46.4909 37.9517 46.5289 37.7576 46.5289C37.5635 46.5289 37.3712 46.4909 37.1919 46.4169C37.0125 46.343 36.8495 46.2346 36.7123 46.098C36.4514 45.8384 36.2974 45.4912 36.2807 45.1244C36.2639 44.7577 36.3855 44.398 36.6217 44.1159C37.108 43.5352 37.4136 42.8261 37.5012 42.0752C37.5887 41.3244 37.4545 40.5644 37.1148 39.8883L34.7575 35.1965L34.395 39.1647C34.3515 39.6406 34.2119 40.1029 33.9845 40.5238C33.7571 40.9447 33.4466 41.3155 33.0717 41.6141L31.0109 43.2548C30.4639 43.6903 30.0223 44.2426 29.7188 44.871C29.4154 45.4993 29.2578 46.1875 29.2578 46.8846V47.4493C29.2578 48.1307 29.4084 48.8038 29.6988 49.4209C29.9892 50.038 30.4125 50.5841 30.9385 51.0203C31.7902 51.7266 32.8665 52.1084 33.975 52.0975L35.4199 52.0833C36.6488 52.071 37.8234 51.5773 38.689 50.7091Z" fill="#FDD04A"/>
<path d="M26.5 35.694C26.3674 35.694 26.2402 35.6416 26.1464 35.5483C26.0527 35.455 26 35.3284 26 35.1965V34.2013C26 34.0693 26.0527 33.9428 26.1464 33.8495C26.2402 33.7562 26.3674 33.7037 26.5 33.7037C26.6326 33.7037 26.7598 33.7562 26.8536 33.8495C26.9473 33.9428 27 34.0693 27 34.2013V35.1965C27 35.3284 26.9473 35.455 26.8536 35.5483C26.7598 35.6416 26.6326 35.694 26.5 35.694Z" fill="#FE691E"/>
<path d="M28 33.2062C27.8674 33.2062 27.7402 33.1538 27.6464 33.0605C27.5527 32.9672 27.5 32.8406 27.5 32.7087V31.7135C27.5 31.5816 27.5527 31.455 27.6464 31.3617C27.7402 31.2684 27.8674 31.2159 28 31.2159C28.1326 31.2159 28.2598 31.2684 28.3536 31.3617C28.4473 31.455 28.5 31.5816 28.5 31.7135V32.7087C28.5 32.8406 28.4473 32.9672 28.3536 33.0605C28.2598 33.1538 28.1326 33.2062 28 33.2062Z" fill="#FF8D54"/>
<path d="M26 31.2159C25.8674 31.2159 25.7402 31.1635 25.6464 31.0701C25.5527 30.9768 25.5 30.8503 25.5 30.7183V29.7232C25.5 29.5912 25.5527 29.4646 25.6464 29.3713C25.7402 29.278 25.8674 29.2256 26 29.2256C26.1326 29.2256 26.2598 29.278 26.3536 29.3713C26.4473 29.4646 26.5 29.5912 26.5 29.7232V30.7183C26.5 30.8503 26.4473 30.9768 26.3536 31.0701C26.2598 31.1635 26.1326 31.2159 26 31.2159Z" fill="#FFB895"/>
<path d="M43.5 37.1868C43.3674 37.1868 43.2402 37.1344 43.1464 37.0411C43.0527 36.9478 43 36.8212 43 36.6893V35.6941C43 35.5621 43.0527 35.4356 43.1464 35.3423C43.2402 35.249 43.3674 35.1965 43.5 35.1965C43.6326 35.1965 43.7598 35.249 43.8536 35.3423C43.9473 35.4356 44 35.5621 44 35.6941V36.6893C44 36.8212 43.9473 36.9478 43.8536 37.0411C43.7598 37.1344 43.6326 37.1868 43.5 37.1868Z" fill="#FE691E"/>
<path d="M42 33.7038C41.8674 33.7038 41.7402 33.6514 41.6464 33.5581C41.5527 33.4647 41.5 33.3382 41.5 33.2062V32.2111C41.5 32.0791 41.5527 31.9525 41.6464 31.8592C41.7402 31.7659 41.8674 31.7135 42 31.7135C42.1326 31.7135 42.2598 31.7659 42.3536 31.8592C42.4473 31.9525 42.5 32.0791 42.5 32.2111V33.2062C42.5 33.3382 42.4473 33.4647 42.3536 33.5581C42.2598 33.6514 42.1326 33.7038 42 33.7038Z" fill="#FF8D54"/>
<path d="M44 32.211C43.8674 32.211 43.7402 32.1586 43.6464 32.0653C43.5527 31.972 43.5 31.8454 43.5 31.7134V30.2207C43.5 30.0888 43.5527 29.9622 43.6464 29.8689C43.7402 29.7756 43.8674 29.7231 44 29.7231C44.1326 29.7231 44.2598 29.7756 44.3536 29.8689C44.4473 29.9622 44.5 30.0888 44.5 30.2207V31.7134C44.5 31.8454 44.4473 31.972 44.3536 32.0653C44.2598 32.1586 44.1326 32.211 44 32.211Z" fill="#FFB895"/>
</g>
<defs>
<filter id="filter0_d_1734_930" x="-6" y="-1.24768" width="82" height="81.8447" filterUnits="userSpaceOnUse" color-interpolation-filters="sRGB">
<feFlood flood-opacity="0" result="BackgroundImageFix"/>
<feColorMatrix in="SourceAlpha" type="matrix" values="0 0 0 0 0 0 0 0 0 0 0 0 0 0 0 0 0 0 127 0" result="hardAlpha"/>
<feOffset/>
<feGaussianBlur stdDeviation="12.5"/>
<feColorMatrix type="matrix" values="0 0 0 0 0.929167 0 0 0 0 0.36776 0 0 0 0 0.0851736 0 0 0 0.35 0"/>
<feBlend mode="normal" in2="BackgroundImageFix" result="effect1_dropShadow_1734_930"/>
<feBlend mode="normal" in="SourceGraphic" in2="effect1_dropShadow_1734_930" result="shape"/>
</filter>
<linearGradient id="paint0_linear_1734_930" x1="34.6944" y1="25.245" x2="34.6944" y2="54.1043" gradientUnits="userSpaceOnUse">
<stop stop-color="#FF9159"/>
<stop offset="0.6875" stop-color="#FF7631"/>
<stop offset="1" stop-color="#FF6A1F"/>
</linearGradient>
</defs>
</svg>
