<svg width="319" height="343" viewBox="0 0 319 343" fill="none" xmlns="http://www.w3.org/2000/svg">
<path d="M0 0.18457H278.956C301.047 0.18457 318.956 18.0932 318.956 40.1846V342.604H40C17.9086 342.604 0 324.695 0 302.604V0.18457Z" fill="url(#paint0_linear_1736_1589)"/>
<path d="M33.96 117.406C33.915 120.406 36.225 122.911 39.33 122.866C42.435 122.911 44.745 120.406 44.7 117.406C44.745 114.406 42.435 111.901 39.33 111.946C36.225 111.901 33.915 114.406 33.96 117.406ZM43.32 117.406C43.32 119.821 41.685 121.636 39.33 121.636C36.975 121.636 35.34 119.821 35.34 117.406C35.34 114.991 36.975 113.176 39.33 113.176C41.685 113.176 43.32 114.991 43.32 117.406ZM58.4063 117.766C58.4063 115.906 57.4913 114.856 55.8113 114.856C54.5363 114.856 53.5313 115.471 53.1263 116.431C52.7663 115.411 51.9263 114.856 50.7713 114.856C49.6162 114.856 48.6863 115.396 48.2663 116.341V115.066H47.0063V122.656H48.2663V118.141C48.2663 116.866 49.1663 116.026 50.4713 116.026C51.5963 116.026 52.0763 116.641 52.0763 118.066V122.656H53.3363V118.141C53.3363 116.866 54.2363 116.026 55.5413 116.026C56.6663 116.026 57.1463 116.641 57.1463 118.066V122.656H58.4063V117.766ZM60.4995 118.861C60.4695 121.006 62.1045 122.911 64.3995 122.866C66.6945 122.911 68.3295 121.006 68.2995 118.861C68.3295 116.716 66.6945 114.811 64.3995 114.856C62.1045 114.811 60.4695 116.716 60.4995 118.861ZM66.9795 118.861C66.9795 119.686 66.7395 120.376 66.2595 120.901C65.7945 121.426 65.1645 121.696 64.3995 121.696C63.6345 121.696 63.0045 121.426 62.5245 120.901C62.0595 120.376 61.8195 119.686 61.8195 118.861C61.8195 118.036 62.0595 117.346 62.5245 116.821C63.0045 116.296 63.6345 116.026 64.3995 116.026C65.1645 116.026 65.7945 116.296 66.2595 116.821C66.7395 117.346 66.9795 118.036 66.9795 118.861ZM71.2426 121.546L75.6826 116.026V115.066H69.8026V116.176H74.1226L69.6826 121.696V122.656H75.7426V121.546H71.2426ZM77.6162 112.606C77.6162 113.101 77.9912 113.476 78.4862 113.476C78.9812 113.476 79.3562 113.101 79.3562 112.606C79.3562 112.111 78.9812 111.736 78.4862 111.736C77.9912 111.736 77.6162 112.111 77.6162 112.606ZM77.8562 122.656H79.1162V115.066H77.8562V122.656ZM88.4256 117.796C88.4256 115.921 87.4506 114.856 85.7256 114.856C84.4806 114.856 83.5056 115.396 83.0856 116.356V115.066H81.8256V122.656H83.0856V118.141C83.0856 116.866 84.0606 116.026 85.4256 116.026C86.6256 116.026 87.1656 116.656 87.1656 118.096V122.656H88.4256V117.796ZM90.5288 118.861C90.4988 121.006 92.1338 122.911 94.4288 122.866C96.7238 122.911 98.3588 121.006 98.3288 118.861C98.3588 116.716 96.7238 114.811 94.4288 114.856C92.1338 114.811 90.4988 116.716 90.5288 118.861ZM97.0088 118.861C97.0088 119.686 96.7688 120.376 96.2888 120.901C95.8238 121.426 95.1938 121.696 94.4288 121.696C93.6638 121.696 93.0338 121.426 92.5538 120.901C92.0888 120.376 91.8488 119.686 91.8488 118.861C91.8488 118.036 92.0888 117.346 92.5538 116.821C93.0338 116.296 93.6638 116.026 94.4288 116.026C95.1938 116.026 95.8238 116.296 96.2888 116.821C96.7688 117.346 97.0088 118.036 97.0088 118.861ZM103.945 122.656H105.205V111.676H103.945V122.656ZM114.725 119.251C114.755 119.026 114.77 118.801 114.77 118.576C114.77 116.371 113.27 114.856 111.155 114.856C108.92 114.856 107.36 116.551 107.36 118.876C107.36 121.231 108.965 122.866 111.26 122.866C112.655 122.866 113.825 122.266 114.56 121.231L113.705 120.511C113.075 121.306 112.265 121.696 111.29 121.696C109.805 121.696 108.785 120.766 108.65 119.251H114.725ZM108.68 118.231C108.905 116.866 109.82 116.026 111.155 116.026C112.475 116.026 113.36 116.836 113.48 118.231H108.68ZM122.774 115.066V116.461C122.339 115.486 121.244 114.856 119.969 114.856C117.884 114.856 116.354 116.521 116.354 118.861C116.354 121.201 117.884 122.866 119.969 122.866C121.244 122.866 122.339 122.236 122.774 121.261V122.656H124.034V115.066H122.774ZM122.834 118.861C122.834 119.686 122.594 120.376 122.114 120.901C121.649 121.426 121.019 121.696 120.254 121.696C119.489 121.696 118.859 121.426 118.379 120.901C117.914 120.376 117.674 119.686 117.674 118.861C117.674 118.036 117.914 117.346 118.379 116.821C118.859 116.296 119.489 116.026 120.254 116.026C121.019 116.026 121.649 116.296 122.114 116.821C122.594 117.346 122.834 118.036 122.834 118.861ZM131.838 115.066L129.423 121.276L127.008 115.066H125.658L128.748 122.656H130.098L133.188 115.066H131.838ZM141.414 119.251C141.444 119.026 141.459 118.801 141.459 118.576C141.459 116.371 139.959 114.856 137.844 114.856C135.609 114.856 134.049 116.551 134.049 118.876C134.049 121.231 135.654 122.866 137.949 122.866C139.344 122.866 140.514 122.266 141.249 121.231L140.394 120.511C139.764 121.306 138.954 121.696 137.979 121.696C136.494 121.696 135.474 120.766 135.339 119.251H141.414ZM135.369 118.231C135.594 116.866 136.509 116.026 137.844 116.026C139.164 116.026 140.049 116.836 140.169 118.231H135.369ZM142.863 121.216C143.463 122.236 144.708 122.866 146.253 122.866C148.113 122.866 149.238 121.921 149.238 120.481C149.238 119.416 148.593 118.741 147.093 118.396L145.758 118.096C144.738 117.856 144.393 117.571 144.393 117.076C144.393 116.401 144.963 115.996 146.043 115.996C146.988 115.996 147.753 116.311 148.248 116.896L149.118 116.146C148.503 115.321 147.438 114.856 146.118 114.856C144.273 114.856 143.133 115.771 143.133 117.106C143.133 118.171 143.883 118.861 145.443 119.221L146.643 119.491C147.603 119.716 147.978 120.031 147.978 120.571C147.978 121.276 147.318 121.726 146.238 121.726C145.203 121.726 144.318 121.321 143.778 120.541L142.863 121.216ZM161.331 117.796C161.331 115.921 160.356 114.856 158.631 114.856C157.386 114.856 156.411 115.396 155.991 116.356V115.066H154.731V122.656H155.991V118.141C155.991 116.866 156.966 116.026 158.331 116.026C159.531 116.026 160.071 116.656 160.071 118.096V122.656H161.331V117.796ZM163.434 118.861C163.404 121.006 165.039 122.911 167.334 122.866C169.629 122.911 171.264 121.006 171.234 118.861C171.264 116.716 169.629 114.811 167.334 114.856C165.039 114.811 163.404 116.716 163.434 118.861ZM169.914 118.861C169.914 119.686 169.674 120.376 169.194 120.901C168.729 121.426 168.099 121.696 167.334 121.696C166.569 121.696 165.939 121.426 165.459 120.901C164.994 120.376 164.754 119.686 164.754 118.861C164.754 118.036 164.994 117.346 165.459 116.821C165.939 116.296 166.569 116.026 167.334 116.026C168.099 116.026 168.729 116.296 169.194 116.821C169.674 117.346 169.914 118.036 169.914 118.861ZM176.13 121.216C176.73 122.236 177.975 122.866 179.52 122.866C181.38 122.866 182.505 121.921 182.505 120.481C182.505 119.416 181.86 118.741 180.36 118.396L179.025 118.096C178.005 117.856 177.66 117.571 177.66 117.076C177.66 116.401 178.23 115.996 179.31 115.996C180.255 115.996 181.02 116.311 181.515 116.896L182.385 116.146C181.77 115.321 180.705 114.856 179.385 114.856C177.54 114.856 176.4 115.771 176.4 117.106C176.4 118.171 177.15 118.861 178.71 119.221L179.91 119.491C180.87 119.716 181.245 120.031 181.245 120.571C181.245 121.276 180.585 121.726 179.505 121.726C178.47 121.726 177.585 121.321 177.045 120.541L176.13 121.216ZM185.066 120.706C185.066 122.071 185.876 122.776 187.376 122.776C187.856 122.776 188.306 122.716 188.741 122.581V121.531C188.306 121.621 187.901 121.666 187.556 121.666C186.701 121.666 186.326 121.351 186.326 120.616V116.146H188.711V115.066H186.326V112.816H185.066V115.066H183.551V116.146H185.066V120.706ZM189.977 118.861C189.947 121.006 191.582 122.911 193.877 122.866C196.172 122.911 197.807 121.006 197.777 118.861C197.807 116.716 196.172 114.811 193.877 114.856C191.582 114.811 189.947 116.716 189.977 118.861ZM196.457 118.861C196.457 119.686 196.217 120.376 195.737 120.901C195.272 121.426 194.642 121.696 193.877 121.696C193.112 121.696 192.482 121.426 192.002 120.901C191.537 120.376 191.297 119.686 191.297 118.861C191.297 118.036 191.537 117.346 192.002 116.821C192.482 116.296 193.112 116.026 193.877 116.026C194.642 116.026 195.272 116.296 195.737 116.821C196.217 117.346 196.457 118.036 196.457 118.861ZM206.536 117.796C206.536 115.921 205.561 114.856 203.836 114.856C202.591 114.856 201.616 115.396 201.196 116.356V115.066H199.936V122.656H201.196V118.141C201.196 116.866 202.171 116.026 203.536 116.026C204.736 116.026 205.276 116.656 205.276 118.096V122.656H206.536V117.796ZM216.004 119.251C216.034 119.026 216.049 118.801 216.049 118.576C216.049 116.371 214.549 114.856 212.434 114.856C210.199 114.856 208.639 116.551 208.639 118.876C208.639 121.231 210.244 122.866 212.539 122.866C213.934 122.866 215.104 122.266 215.839 121.231L214.984 120.511C214.354 121.306 213.544 121.696 212.569 121.696C211.084 121.696 210.064 120.766 209.929 119.251H216.004ZM209.959 118.231C210.184 116.866 211.099 116.026 212.434 116.026C213.754 116.026 214.639 116.836 214.759 118.231H209.959ZM34.2 138.821C34.2 140.621 35.505 141.866 37.47 141.866C39.435 141.866 40.74 140.621 40.74 138.821V134.066H39.48V138.746C39.48 140.006 38.745 140.696 37.47 140.696C36.195 140.696 35.46 140.006 35.46 138.746V134.066H34.2V138.821ZM49.8855 136.796C49.8855 134.921 48.9105 133.856 47.1855 133.856C45.9405 133.856 44.9655 134.396 44.5455 135.356V134.066H43.2855V141.656H44.5455V137.141C44.5455 135.866 45.5205 135.026 46.8855 135.026C48.0855 135.026 48.6255 135.656 48.6255 137.096V141.656H49.8855V136.796ZM52.9958 139.706C52.9958 141.071 53.8058 141.776 55.3058 141.776C55.7858 141.776 56.2358 141.716 56.6708 141.581V140.531C56.2358 140.621 55.8308 140.666 55.4858 140.666C54.6308 140.666 54.2558 140.351 54.2558 139.616V135.146H56.6408V134.066H54.2558V131.816H52.9958V134.066H51.4808V135.146H52.9958V139.706ZM58.4432 138.821C58.4432 140.621 59.7482 141.866 61.7132 141.866C63.6782 141.866 64.9832 140.621 64.9832 138.821V134.066H63.7232V138.746C63.7232 140.006 62.9882 140.696 61.7132 140.696C60.4382 140.696 59.7032 140.006 59.7032 138.746V134.066H58.4432V138.821ZM71.7887 134.051C71.5937 133.976 71.3537 133.946 71.0987 133.946C69.9737 133.946 69.1337 134.516 68.7887 135.491V134.066H67.5287V141.656H68.7887V137.771C68.7887 135.986 69.6437 135.116 71.1287 135.116C71.3537 135.116 71.5637 135.131 71.7887 135.161V134.051ZM80.1932 136.796C80.1932 134.921 79.2182 133.856 77.4932 133.856C76.2482 133.856 75.2732 134.396 74.8532 135.356V134.066H73.5932V141.656H74.8532V137.141C74.8532 135.866 75.8282 135.026 77.1932 135.026C78.3932 135.026 78.9332 135.656 78.9332 137.096V141.656H80.1932V136.796ZM89.6613 138.251C89.6913 138.026 89.7063 137.801 89.7063 137.576C89.7063 135.371 88.2063 133.856 86.0913 133.856C83.8563 133.856 82.2963 135.551 82.2963 137.876C82.2963 140.231 83.9013 141.866 86.1963 141.866C87.5913 141.866 88.7613 141.266 89.4963 140.231L88.6413 139.511C88.0113 140.306 87.2013 140.696 86.2263 140.696C84.7413 140.696 83.7213 139.766 83.5863 138.251H89.6613ZM83.6163 137.231C83.8413 135.866 84.7563 135.026 86.0913 135.026C87.4113 135.026 88.2963 135.836 88.4163 137.231H83.6163ZM97.7105 130.676V135.461C97.2455 134.486 96.1655 133.856 94.8905 133.856C92.8205 133.856 91.2905 135.521 91.2905 137.861C91.2905 140.201 92.8205 141.866 94.8905 141.866C96.1655 141.866 97.2455 141.236 97.7105 140.261V141.656H98.9705V130.676H97.7105ZM97.7705 137.861C97.7705 138.686 97.5305 139.376 97.0505 139.901C96.5855 140.426 95.9555 140.696 95.1905 140.696C94.4255 140.696 93.7955 140.426 93.3155 139.901C92.8505 139.376 92.6105 138.686 92.6105 137.861C92.6105 137.036 92.8505 136.346 93.3155 135.821C93.7955 135.296 94.4255 135.026 95.1905 135.026C95.9555 135.026 96.5855 135.296 97.0505 135.821C97.5305 136.346 97.7705 137.036 97.7705 137.861ZM114.51 134.066L112.575 140.111L110.565 134.066H109.185L107.175 140.111L105.24 134.066H103.965L106.455 141.656H107.835L109.875 135.506L111.915 141.656H113.295L115.785 134.066H114.51ZM124.065 136.796C124.065 134.921 123.09 133.856 121.365 133.856C120.12 133.856 119.145 134.396 118.725 135.356V130.676H117.465V141.656H118.725V137.141C118.725 135.866 119.7 135.026 121.065 135.026C122.265 135.026 122.805 135.656 122.805 137.096V141.656H124.065V136.796ZM133.533 138.251C133.563 138.026 133.578 137.801 133.578 137.576C133.578 135.371 132.078 133.856 129.963 133.856C127.728 133.856 126.168 135.551 126.168 137.876C126.168 140.231 127.773 141.866 130.068 141.866C131.463 141.866 132.633 141.266 133.368 140.231L132.513 139.511C131.883 140.306 131.073 140.696 130.098 140.696C128.613 140.696 127.593 139.766 127.458 138.251H133.533ZM127.488 137.231C127.713 135.866 128.628 135.026 129.963 135.026C131.283 135.026 132.168 135.836 132.288 137.231H127.488ZM142.303 136.796C142.303 134.921 141.328 133.856 139.603 133.856C138.358 133.856 137.383 134.396 136.963 135.356V134.066H135.703V141.656H136.963V137.141C136.963 135.866 137.938 135.026 139.303 135.026C140.503 135.026 141.043 135.656 141.043 137.096V141.656H142.303V136.796ZM148.178 131.606C148.178 132.101 148.553 132.476 149.048 132.476C149.543 132.476 149.918 132.101 149.918 131.606C149.918 131.111 149.543 130.736 149.048 130.736C148.553 130.736 148.178 131.111 148.178 131.606ZM148.418 141.656H149.678V134.066H148.418V141.656ZM152.942 139.706C152.942 141.071 153.752 141.776 155.252 141.776C155.732 141.776 156.182 141.716 156.617 141.581V140.531C156.182 140.621 155.777 140.666 155.432 140.666C154.577 140.666 154.202 140.351 154.202 139.616V135.146H156.587V134.066H154.202V131.816H152.942V134.066H151.427V135.146H152.942V139.706ZM161.456 137.861C161.456 140.171 163.046 141.866 165.356 141.866C166.751 141.866 167.891 141.281 168.536 140.216L167.546 139.526C167.081 140.291 166.316 140.696 165.371 140.696C164.606 140.696 163.976 140.441 163.496 139.916C163.016 139.391 162.776 138.716 162.776 137.861C162.776 137.006 163.016 136.331 163.496 135.806C163.976 135.281 164.606 135.026 165.371 135.026C166.316 135.026 167.081 135.431 167.546 136.196L168.536 135.506C167.891 134.441 166.751 133.856 165.356 133.856C163.046 133.856 161.456 135.551 161.456 137.861ZM169.85 137.861C169.82 140.006 171.455 141.911 173.75 141.866C176.045 141.911 177.68 140.006 177.65 137.861C177.68 135.716 176.045 133.811 173.75 133.856C171.455 133.811 169.82 135.716 169.85 137.861ZM176.33 137.861C176.33 138.686 176.09 139.376 175.61 139.901C175.145 140.426 174.515 140.696 173.75 140.696C172.985 140.696 172.355 140.426 171.875 139.901C171.41 139.376 171.17 138.686 171.17 137.861C171.17 137.036 171.41 136.346 171.875 135.821C172.355 135.296 172.985 135.026 173.75 135.026C174.515 135.026 175.145 135.296 175.61 135.821C176.09 136.346 176.33 137.036 176.33 137.861ZM191.209 136.766C191.209 134.906 190.294 133.856 188.614 133.856C187.339 133.856 186.334 134.471 185.929 135.431C185.569 134.411 184.729 133.856 183.574 133.856C182.419 133.856 181.489 134.396 181.069 135.341V134.066H179.809V141.656H181.069V137.141C181.069 135.866 181.969 135.026 183.274 135.026C184.399 135.026 184.879 135.641 184.879 137.066V141.656H186.139V137.141C186.139 135.866 187.039 135.026 188.344 135.026C189.469 135.026 189.949 135.641 189.949 137.066V141.656H191.209V136.766ZM200.667 138.251C200.697 138.026 200.712 137.801 200.712 137.576C200.712 135.371 199.212 133.856 197.097 133.856C194.862 133.856 193.302 135.551 193.302 137.876C193.302 140.231 194.907 141.866 197.202 141.866C198.597 141.866 199.767 141.266 200.502 140.231L199.647 139.511C199.017 140.306 198.207 140.696 197.232 140.696C195.747 140.696 194.727 139.766 194.592 138.251H200.667ZM194.622 137.231C194.847 135.866 195.762 135.026 197.097 135.026C198.417 135.026 199.302 135.836 199.422 137.231H194.622ZM202.116 140.216C202.716 141.236 203.961 141.866 205.506 141.866C207.366 141.866 208.491 140.921 208.491 139.481C208.491 138.416 207.846 137.741 206.346 137.396L205.011 137.096C203.991 136.856 203.646 136.571 203.646 136.076C203.646 135.401 204.216 134.996 205.296 134.996C206.241 134.996 207.006 135.311 207.501 135.896L208.371 135.146C207.756 134.321 206.691 133.856 205.371 133.856C203.526 133.856 202.386 134.771 202.386 136.106C202.386 137.171 203.136 137.861 204.696 138.221L205.896 138.491C206.856 138.716 207.231 139.031 207.231 139.571C207.231 140.276 206.571 140.726 205.491 140.726C204.456 140.726 203.571 140.321 203.031 139.541L202.116 140.216ZM214.319 139.706C214.319 141.071 215.129 141.776 216.629 141.776C217.109 141.776 217.559 141.716 217.994 141.581V140.531C217.559 140.621 217.154 140.666 216.809 140.666C215.954 140.666 215.579 140.351 215.579 139.616V135.146H217.964V134.066H215.579V131.816H214.319V134.066H212.804V135.146H214.319V139.706ZM219.23 137.861C219.2 140.006 220.835 141.911 223.13 141.866C225.425 141.911 227.06 140.006 227.03 137.861C227.06 135.716 225.425 133.811 223.13 133.856C220.835 133.811 219.2 135.716 219.23 137.861ZM225.71 137.861C225.71 138.686 225.47 139.376 224.99 139.901C224.525 140.426 223.895 140.696 223.13 140.696C222.365 140.696 221.735 140.426 221.255 139.901C220.79 139.376 220.55 138.686 220.55 137.861C220.55 137.036 220.79 136.346 221.255 135.821C221.735 135.296 222.365 135.026 223.13 135.026C223.895 135.026 224.525 135.296 224.99 135.821C225.47 136.346 225.71 137.036 225.71 137.861ZM232.981 139.706C232.981 141.071 233.791 141.776 235.291 141.776C235.771 141.776 236.221 141.716 236.656 141.581V140.531C236.221 140.621 235.816 140.666 235.471 140.666C234.616 140.666 234.241 140.351 234.241 139.616V135.146H236.626V134.066H234.241V131.816H232.981V134.066H231.466V135.146H232.981V139.706ZM245.179 136.796C245.179 134.921 244.204 133.856 242.479 133.856C241.234 133.856 240.259 134.396 239.839 135.356V130.676H238.579V141.656H239.839V137.141C239.839 135.866 240.814 135.026 242.179 135.026C243.379 135.026 243.919 135.656 243.919 137.096V141.656H245.179V136.796ZM254.647 138.251C254.677 138.026 254.692 137.801 254.692 137.576C254.692 135.371 253.192 133.856 251.077 133.856C248.842 133.856 247.282 135.551 247.282 137.876C247.282 140.231 248.887 141.866 251.182 141.866C252.577 141.866 253.747 141.266 254.482 140.231L253.627 139.511C252.997 140.306 252.187 140.696 251.212 140.696C249.727 140.696 248.707 139.766 248.572 138.251H254.647ZM248.602 137.231C248.827 135.866 249.742 135.026 251.077 135.026C252.397 135.026 253.282 135.836 253.402 137.231H248.602ZM40.23 153.066V154.461C39.795 153.486 38.7 152.856 37.425 152.856C35.34 152.856 33.81 154.521 33.81 156.861C33.81 159.201 35.34 160.866 37.425 160.866C38.7 160.866 39.795 160.236 40.23 159.261V160.656H41.49V153.066H40.23ZM40.29 156.861C40.29 157.686 40.05 158.376 39.57 158.901C39.105 159.426 38.475 159.696 37.71 159.696C36.945 159.696 36.315 159.426 35.835 158.901C35.37 158.376 35.13 157.686 35.13 156.861C35.13 156.036 35.37 155.346 35.835 154.821C36.315 154.296 36.945 154.026 37.71 154.026C38.475 154.026 39.105 154.296 39.57 154.821C40.05 155.346 40.29 156.036 40.29 156.861ZM50.7938 155.796C50.7938 153.921 49.8188 152.856 48.0938 152.856C46.8488 152.856 45.8738 153.396 45.4538 154.356V153.066H44.1938V160.656H45.4538V156.141C45.4538 154.866 46.4288 154.026 47.7938 154.026C48.9938 154.026 49.5338 154.656 49.5338 156.096V160.656H50.7938V155.796ZM59.3169 153.066V154.461C58.8819 153.486 57.7869 152.856 56.5119 152.856C54.4269 152.856 52.8969 154.521 52.8969 156.861C52.8969 159.201 54.4269 160.866 56.5119 160.866C57.7869 160.866 58.8819 160.236 59.3169 159.261V160.656H60.5769V153.066H59.3169ZM59.3769 156.861C59.3769 157.686 59.1369 158.376 58.6569 158.901C58.1919 159.426 57.5619 159.696 56.7969 159.696C56.0319 159.696 55.4019 159.426 54.9219 158.901C54.4569 158.376 54.2169 157.686 54.2169 156.861C54.2169 156.036 54.4569 155.346 54.9219 154.821C55.4019 154.296 56.0319 154.026 56.7969 154.026C57.5619 154.026 58.1919 154.296 58.6569 154.821C59.1369 155.346 59.3769 156.036 59.3769 156.861ZM63.2807 160.656H64.5407V149.676H63.2807V160.656ZM72.4107 153.066V157.371C72.4107 158.631 71.4207 159.486 70.0407 159.486C68.8557 159.486 68.3007 158.856 68.3007 157.416V153.066H67.0407V157.716C67.0407 159.621 68.0457 160.656 69.7407 160.656C70.9857 160.656 71.9757 160.116 72.4107 159.156V159.921C72.4107 161.766 71.5107 162.696 69.9357 162.696C69.0357 162.696 68.1657 162.381 67.5507 161.826L66.8157 162.726C67.5207 163.446 68.6907 163.866 69.9657 163.866C72.3057 163.866 73.6707 162.486 73.6707 159.921V153.066H72.4107ZM76.9314 158.706C76.9314 160.071 77.7414 160.776 79.2414 160.776C79.7214 160.776 80.1714 160.716 80.6064 160.581V159.531C80.1714 159.621 79.7664 159.666 79.4214 159.666C78.5664 159.666 78.1914 159.351 78.1914 158.616V154.146H80.5764V153.066H78.1914V150.816H76.9314V153.066H75.4164V154.146H76.9314V158.706ZM82.3037 150.606C82.3037 151.101 82.6787 151.476 83.1737 151.476C83.6687 151.476 84.0437 151.101 84.0437 150.606C84.0437 150.111 83.6687 149.736 83.1737 149.736C82.6787 149.736 82.3037 150.111 82.3037 150.606ZM82.5437 160.656H83.8037V153.066H82.5437V160.656ZM85.9731 156.861C85.9731 159.171 87.5631 160.866 89.8731 160.866C91.2681 160.866 92.4081 160.281 93.0531 159.216L92.0631 158.526C91.5981 159.291 90.8331 159.696 89.8881 159.696C89.1231 159.696 88.4931 159.441 88.0131 158.916C87.5331 158.391 87.2931 157.716 87.2931 156.861C87.2931 156.006 87.5331 155.331 88.0131 154.806C88.4931 154.281 89.1231 154.026 89.8881 154.026C90.8331 154.026 91.5981 154.431 92.0631 155.196L93.0531 154.506C92.4081 153.441 91.2681 152.856 89.8731 152.856C87.5631 152.856 85.9731 154.551 85.9731 156.861ZM94.2745 159.216C94.8745 160.236 96.1195 160.866 97.6645 160.866C99.5245 160.866 100.65 159.921 100.65 158.481C100.65 157.416 100.005 156.741 98.5045 156.396L97.1695 156.096C96.1495 155.856 95.8045 155.571 95.8045 155.076C95.8045 154.401 96.3745 153.996 97.4545 153.996C98.3995 153.996 99.1645 154.311 99.6595 154.896L100.53 154.146C99.9145 153.321 98.8495 152.856 97.5295 152.856C95.6845 152.856 94.5445 153.771 94.5445 155.106C94.5445 156.171 95.2945 156.861 96.8545 157.221L98.0545 157.491C99.0145 157.716 99.3895 158.031 99.3895 158.571C99.3895 159.276 98.7295 159.726 97.6495 159.726C96.6145 159.726 95.7295 159.321 95.1895 158.541L94.2745 159.216ZM105.602 156.861C105.572 159.006 107.207 160.911 109.502 160.866C111.797 160.911 113.432 159.006 113.402 156.861C113.432 154.716 111.797 152.811 109.502 152.856C107.207 152.811 105.572 154.716 105.602 156.861ZM112.082 156.861C112.082 157.686 111.842 158.376 111.362 158.901C110.897 159.426 110.267 159.696 109.502 159.696C108.737 159.696 108.107 159.426 107.627 158.901C107.162 158.376 106.922 157.686 106.922 156.861C106.922 156.036 107.162 155.346 107.627 154.821C108.107 154.296 108.737 154.026 109.502 154.026C110.267 154.026 110.897 154.296 111.362 154.821C111.842 155.346 112.082 156.036 112.082 156.861ZM116.014 160.656H117.274V154.146H119.494V153.066H117.274V151.941C117.274 151.026 117.649 150.636 118.534 150.636C118.834 150.636 119.164 150.666 119.524 150.741V149.676C119.134 149.586 118.744 149.541 118.369 149.541C116.764 149.541 116.014 150.276 116.014 151.911V153.066H114.454V154.146H116.014V160.656ZM132.133 156.861C132.133 154.521 130.603 152.856 128.533 152.856C127.258 152.856 126.178 153.486 125.713 154.461V153.066H124.453V163.656H125.713V159.261C126.178 160.236 127.258 160.866 128.533 160.866C130.603 160.866 132.133 159.201 132.133 156.861ZM130.813 156.861C130.813 157.686 130.573 158.376 130.093 158.901C129.628 159.426 128.998 159.696 128.233 159.696C127.468 159.696 126.838 159.426 126.358 158.901C125.893 158.376 125.653 157.686 125.653 156.861C125.653 156.036 125.893 155.346 126.358 154.821C126.838 154.296 127.468 154.026 128.233 154.026C128.998 154.026 129.628 154.296 130.093 154.821C130.573 155.346 130.813 156.036 130.813 156.861ZM141.121 157.251C141.151 157.026 141.166 156.801 141.166 156.576C141.166 154.371 139.666 152.856 137.551 152.856C135.316 152.856 133.756 154.551 133.756 156.876C133.756 159.231 135.361 160.866 137.656 160.866C139.051 160.866 140.221 160.266 140.956 159.231L140.101 158.511C139.471 159.306 138.661 159.696 137.686 159.696C136.201 159.696 135.181 158.766 135.046 157.251H141.121ZM135.076 156.231C135.301 154.866 136.216 154.026 137.551 154.026C138.871 154.026 139.756 154.836 139.876 156.231H135.076ZM142.75 156.861C142.72 159.006 144.355 160.911 146.65 160.866C148.945 160.911 150.58 159.006 150.55 156.861C150.58 154.716 148.945 152.811 146.65 152.856C144.355 152.811 142.72 154.716 142.75 156.861ZM149.23 156.861C149.23 157.686 148.99 158.376 148.51 158.901C148.045 159.426 147.415 159.696 146.65 159.696C145.885 159.696 145.255 159.426 144.775 158.901C144.31 158.376 144.07 157.686 144.07 156.861C144.07 156.036 144.31 155.346 144.775 154.821C145.255 154.296 145.885 154.026 146.65 154.026C147.415 154.026 148.045 154.296 148.51 154.821C148.99 155.346 149.23 156.036 149.23 156.861ZM160.389 156.861C160.389 154.521 158.859 152.856 156.789 152.856C155.514 152.856 154.434 153.486 153.969 154.461V153.066H152.709V163.656H153.969V159.261C154.434 160.236 155.514 160.866 156.789 160.866C158.859 160.866 160.389 159.201 160.389 156.861ZM159.069 156.861C159.069 157.686 158.829 158.376 158.349 158.901C157.884 159.426 157.254 159.696 156.489 159.696C155.724 159.696 155.094 159.426 154.614 158.901C154.149 158.376 153.909 157.686 153.909 156.861C153.909 156.036 154.149 155.346 154.614 154.821C155.094 154.296 155.724 154.026 156.489 154.026C157.254 154.026 157.884 154.296 158.349 154.821C158.829 155.346 159.069 156.036 159.069 156.861ZM162.553 160.656H163.813V149.676H162.553V160.656ZM173.333 157.251C173.363 157.026 173.378 156.801 173.378 156.576C173.378 154.371 171.878 152.856 169.763 152.856C167.528 152.856 165.968 154.551 165.968 156.876C165.968 159.231 167.573 160.866 169.868 160.866C171.263 160.866 172.433 160.266 173.168 159.231L172.313 158.511C171.683 159.306 170.873 159.696 169.898 159.696C168.413 159.696 167.393 158.766 167.258 157.251H173.333ZM167.288 156.231C167.513 154.866 168.428 154.026 169.763 154.026C171.083 154.026 171.968 154.836 172.088 156.231H167.288ZM174.681 162.891H175.671L176.721 158.841H175.401L174.681 162.891ZM182.766 158.706C182.766 160.071 183.576 160.776 185.076 160.776C185.556 160.776 186.006 160.716 186.441 160.581V159.531C186.006 159.621 185.601 159.666 185.256 159.666C184.401 159.666 184.026 159.351 184.026 158.616V154.146H186.411V153.066H184.026V150.816H182.766V153.066H181.251V154.146H182.766V158.706ZM194.097 153.066V154.461C193.662 153.486 192.567 152.856 191.292 152.856C189.207 152.856 187.677 154.521 187.677 156.861C187.677 159.201 189.207 160.866 191.292 160.866C192.567 160.866 193.662 160.236 194.097 159.261V160.656H195.357V153.066H194.097ZM194.157 156.861C194.157 157.686 193.917 158.376 193.437 158.901C192.972 159.426 192.342 159.696 191.577 159.696C190.812 159.696 190.182 159.426 189.702 158.901C189.237 158.376 188.997 157.686 188.997 156.861C188.997 156.036 189.237 155.346 189.702 154.821C190.182 154.296 190.812 154.026 191.577 154.026C192.342 154.026 192.972 154.296 193.437 154.821C193.917 155.346 194.157 156.036 194.157 156.861ZM198.061 160.656H199.321V149.676H198.061V160.656ZM208.841 157.251C208.871 157.026 208.886 156.801 208.886 156.576C208.886 154.371 207.386 152.856 205.271 152.856C203.036 152.856 201.476 154.551 201.476 156.876C201.476 159.231 203.081 160.866 205.376 160.866C206.771 160.866 207.941 160.266 208.676 159.231L207.821 158.511C207.191 159.306 206.381 159.696 205.406 159.696C203.921 159.696 202.901 158.766 202.766 157.251H208.841ZM202.796 156.231C203.021 154.866 203.936 154.026 205.271 154.026C206.591 154.026 207.476 154.836 207.596 156.231H202.796ZM217.61 155.796C217.61 153.921 216.635 152.856 214.91 152.856C213.665 152.856 212.69 153.396 212.27 154.356V153.066H211.01V160.656H212.27V156.141C212.27 154.866 213.245 154.026 214.61 154.026C215.81 154.026 216.35 154.656 216.35 156.096V160.656H217.61V155.796ZM220.72 158.706C220.72 160.071 221.53 160.776 223.03 160.776C223.51 160.776 223.96 160.716 224.395 160.581V159.531C223.96 159.621 223.555 159.666 223.21 159.666C222.355 159.666 221.98 159.351 221.98 158.616V154.146H224.365V153.066H221.98V150.816H220.72V153.066H219.205V154.146H220.72V158.706ZM235.655 153.066V154.461C235.22 153.486 234.125 152.856 232.85 152.856C230.765 152.856 229.235 154.521 229.235 156.861C229.235 159.201 230.765 160.866 232.85 160.866C234.125 160.866 235.22 160.236 235.655 159.261V160.656H236.915V153.066H235.655ZM235.715 156.861C235.715 157.686 235.475 158.376 234.995 158.901C234.53 159.426 233.9 159.696 233.135 159.696C232.37 159.696 231.74 159.426 231.26 158.901C230.795 158.376 230.555 157.686 230.555 156.861C230.555 156.036 230.795 155.346 231.26 154.821C231.74 154.296 232.37 154.026 233.135 154.026C233.9 154.026 234.53 154.296 234.995 154.821C235.475 155.346 235.715 156.036 235.715 156.861ZM246.219 155.796C246.219 153.921 245.244 152.856 243.519 152.856C242.274 152.856 241.299 153.396 240.879 154.356V153.066H239.619V160.656H240.879V156.141C240.879 154.866 241.854 154.026 243.219 154.026C244.419 154.026 244.959 154.656 244.959 156.096V160.656H246.219V155.796ZM254.742 149.676V154.461C254.277 153.486 253.197 152.856 251.922 152.856C249.852 152.856 248.322 154.521 248.322 156.861C248.322 159.201 249.852 160.866 251.922 160.866C253.197 160.866 254.277 160.236 254.742 159.261V160.656H256.002V149.676H254.742ZM254.802 156.861C254.802 157.686 254.562 158.376 254.082 158.901C253.617 159.426 252.987 159.696 252.222 159.696C251.457 159.696 250.827 159.426 250.347 158.901C249.882 158.376 249.642 157.686 249.642 156.861C249.642 156.036 249.882 155.346 250.347 154.821C250.827 154.296 251.457 154.026 252.222 154.026C252.987 154.026 253.617 154.296 254.082 154.821C254.562 155.346 254.802 156.036 254.802 156.861ZM40.95 174.796C40.95 172.921 39.975 171.856 38.25 171.856C37.005 171.856 36.03 172.396 35.61 173.356V168.676H34.35V179.656H35.61V175.141C35.61 173.866 36.585 173.026 37.95 173.026C39.15 173.026 39.69 173.656 39.69 175.096V179.656H40.95V174.796ZM43.0532 175.861C43.0232 178.006 44.6582 179.911 46.9532 179.866C49.2482 179.911 50.8832 178.006 50.8532 175.861C50.8832 173.716 49.2482 171.811 46.9532 171.856C44.6582 171.811 43.0232 173.716 43.0532 175.861ZM49.5332 175.861C49.5332 176.686 49.2932 177.376 48.8132 177.901C48.3482 178.426 47.7182 178.696 46.9532 178.696C46.1882 178.696 45.5582 178.426 45.0782 177.901C44.6132 177.376 44.3732 176.686 44.3732 175.861C44.3732 175.036 44.6132 174.346 45.0782 173.821C45.5582 173.296 46.1882 173.026 46.9532 173.026C47.7182 173.026 48.3482 173.296 48.8132 173.821C49.2932 174.346 49.5332 175.036 49.5332 175.861ZM62.4053 172.066L60.4703 178.111L58.4603 172.066H57.0803L55.0703 178.111L53.1353 172.066H51.8603L54.3503 179.656H55.7303L57.7703 173.506L59.8103 179.656H61.1903L63.6803 172.066H62.4053ZM68.4463 169.606C68.4463 170.101 68.8213 170.476 69.3163 170.476C69.8113 170.476 70.1863 170.101 70.1863 169.606C70.1863 169.111 69.8113 168.736 69.3163 168.736C68.8213 168.736 68.4463 169.111 68.4463 169.606ZM68.6863 179.656H69.9463V172.066H68.6863V179.656ZM73.2107 177.706C73.2107 179.071 74.0207 179.776 75.5207 179.776C76.0007 179.776 76.4507 179.716 76.8857 179.581V178.531C76.4507 178.621 76.0457 178.666 75.7007 178.666C74.8457 178.666 74.4707 178.351 74.4707 177.616V173.146H76.8557V172.066H74.4707V169.816H73.2107V172.066H71.6957V173.146H73.2107V177.706ZM82.04 169.606C82.04 170.101 82.415 170.476 82.91 170.476C83.405 170.476 83.78 170.101 83.78 169.606C83.78 169.111 83.405 168.736 82.91 168.736C82.415 168.736 82.04 169.111 82.04 169.606ZM82.28 179.656H83.54V172.066H82.28V179.656ZM92.8494 174.796C92.8494 172.921 91.8744 171.856 90.1494 171.856C88.9044 171.856 87.9294 172.396 87.5094 173.356V172.066H86.2494V179.656H87.5094V175.141C87.5094 173.866 88.4844 173.026 89.8494 173.026C91.0494 173.026 91.5894 173.656 91.5894 175.096V179.656H92.8494V174.796ZM96.0047 179.656H97.2647V173.146H99.4847V172.066H97.2647V170.941C97.2647 170.026 97.6397 169.636 98.5247 169.636C98.8247 169.636 99.1547 169.666 99.5147 169.741V168.676C99.1247 168.586 98.7347 168.541 98.3597 168.541C96.7547 168.541 96.0047 169.276 96.0047 170.911V172.066H94.4447V173.146H96.0047V179.656ZM101.132 179.656H102.392V168.676H101.132V179.656ZM104.937 176.821C104.937 178.621 106.242 179.866 108.207 179.866C110.172 179.866 111.477 178.621 111.477 176.821V172.066H110.217V176.746C110.217 178.006 109.482 178.696 108.207 178.696C106.932 178.696 106.197 178.006 106.197 176.746V172.066H104.937V176.821ZM120.848 176.251C120.878 176.026 120.893 175.801 120.893 175.576C120.893 173.371 119.393 171.856 117.278 171.856C115.043 171.856 113.483 173.551 113.483 175.876C113.483 178.231 115.088 179.866 117.383 179.866C118.778 179.866 119.948 179.266 120.683 178.231L119.828 177.511C119.198 178.306 118.388 178.696 117.413 178.696C115.928 178.696 114.908 177.766 114.773 176.251H120.848ZM114.803 175.231C115.028 173.866 115.943 173.026 117.278 173.026C118.598 173.026 119.483 173.836 119.603 175.231H114.803ZM129.617 174.796C129.617 172.921 128.642 171.856 126.917 171.856C125.672 171.856 124.697 172.396 124.277 173.356V172.066H123.017V179.656H124.277V175.141C124.277 173.866 125.252 173.026 126.617 173.026C127.817 173.026 128.357 173.656 128.357 175.096V179.656H129.617V174.796ZM131.72 175.861C131.72 178.171 133.31 179.866 135.62 179.866C137.015 179.866 138.155 179.281 138.8 178.216L137.81 177.526C137.345 178.291 136.58 178.696 135.635 178.696C134.87 178.696 134.24 178.441 133.76 177.916C133.28 177.391 133.04 176.716 133.04 175.861C133.04 175.006 133.28 174.331 133.76 173.806C134.24 173.281 134.87 173.026 135.635 173.026C136.58 173.026 137.345 173.431 137.81 174.196L138.8 173.506C138.155 172.441 137.015 171.856 135.62 171.856C133.31 171.856 131.72 173.551 131.72 175.861ZM147.479 176.251C147.509 176.026 147.524 175.801 147.524 175.576C147.524 173.371 146.024 171.856 143.909 171.856C141.674 171.856 140.114 173.551 140.114 175.876C140.114 178.231 141.719 179.866 144.014 179.866C145.409 179.866 146.579 179.266 147.314 178.231L146.459 177.511C145.829 178.306 145.019 178.696 144.044 178.696C142.559 178.696 141.539 177.766 141.404 176.251H147.479ZM141.434 175.231C141.659 173.866 142.574 173.026 143.909 173.026C145.229 173.026 146.114 173.836 146.234 175.231H141.434ZM148.928 178.216C149.528 179.236 150.773 179.866 152.318 179.866C154.178 179.866 155.303 178.921 155.303 177.481C155.303 176.416 154.658 175.741 153.158 175.396L151.823 175.096C150.803 174.856 150.458 174.571 150.458 174.076C150.458 173.401 151.028 172.996 152.108 172.996C153.053 172.996 153.818 173.311 154.313 173.896L155.183 173.146C154.568 172.321 153.503 171.856 152.183 171.856C150.338 171.856 149.198 172.771 149.198 174.106C149.198 175.171 149.948 175.861 151.508 176.221L152.708 176.491C153.668 176.716 154.043 177.031 154.043 177.571C154.043 178.276 153.383 178.726 152.303 178.726C151.268 178.726 150.383 178.321 149.843 177.541L148.928 178.216ZM161.131 177.706C161.131 179.071 161.941 179.776 163.441 179.776C163.921 179.776 164.371 179.716 164.806 179.581V178.531C164.371 178.621 163.966 178.666 163.621 178.666C162.766 178.666 162.391 178.351 162.391 177.616V173.146H164.776V172.066H162.391V169.816H161.131V172.066H159.616V173.146H161.131V177.706ZM173.328 174.796C173.328 172.921 172.353 171.856 170.628 171.856C169.383 171.856 168.408 172.396 167.988 173.356V168.676H166.728V179.656H167.988V175.141C167.988 173.866 168.963 173.026 170.328 173.026C171.528 173.026 172.068 173.656 172.068 175.096V179.656H173.328V174.796ZM182.796 176.251C182.826 176.026 182.841 175.801 182.841 175.576C182.841 173.371 181.341 171.856 179.226 171.856C176.991 171.856 175.431 173.551 175.431 175.876C175.431 178.231 177.036 179.866 179.331 179.866C180.726 179.866 181.896 179.266 182.631 178.231L181.776 177.511C181.146 178.306 180.336 178.696 179.361 178.696C177.876 178.696 176.856 177.766 176.721 176.251H182.796ZM176.751 175.231C176.976 173.866 177.891 173.026 179.226 173.026C180.546 173.026 181.431 173.836 181.551 175.231H176.751ZM184.74 169.606C184.74 170.101 185.115 170.476 185.61 170.476C186.105 170.476 186.48 170.101 186.48 169.606C186.48 169.111 186.105 168.736 185.61 168.736C185.115 168.736 184.74 169.111 184.74 169.606ZM184.98 179.656H186.24V172.066H184.98V179.656ZM193.21 172.051C193.015 171.976 192.775 171.946 192.52 171.946C191.395 171.946 190.555 172.516 190.21 173.491V172.066H188.95V179.656H190.21V175.771C190.21 173.986 191.065 173.116 192.55 173.116C192.775 173.116 192.985 173.131 193.21 173.161V172.051ZM42.03 194.861C42.03 192.521 40.5 190.856 38.43 190.856C37.155 190.856 36.075 191.486 35.61 192.461V191.066H34.35V201.656H35.61V197.261C36.075 198.236 37.155 198.866 38.43 198.866C40.5 198.866 42.03 197.201 42.03 194.861ZM40.71 194.861C40.71 195.686 40.47 196.376 39.99 196.901C39.525 197.426 38.895 197.696 38.13 197.696C37.365 197.696 36.735 197.426 36.255 196.901C35.79 196.376 35.55 195.686 35.55 194.861C35.55 194.036 35.79 193.346 36.255 192.821C36.735 192.296 37.365 192.026 38.13 192.026C38.895 192.026 39.525 192.296 39.99 192.821C40.47 193.346 40.71 194.036 40.71 194.861ZM51.0188 195.251C51.0488 195.026 51.0638 194.801 51.0638 194.576C51.0638 192.371 49.5638 190.856 47.4488 190.856C45.2138 190.856 43.6538 192.551 43.6538 194.876C43.6538 197.231 45.2588 198.866 47.5538 198.866C48.9488 198.866 50.1188 198.266 50.8538 197.231L49.9988 196.511C49.3688 197.306 48.5588 197.696 47.5838 197.696C46.0988 197.696 45.0788 196.766 44.9438 195.251H51.0188ZM44.9738 194.231C45.1988 192.866 46.1138 192.026 47.4488 192.026C48.7688 192.026 49.6538 192.836 49.7738 194.231H44.9738ZM57.4479 191.051C57.2529 190.976 57.0129 190.946 56.7579 190.946C55.6329 190.946 54.7929 191.516 54.4479 192.491V191.066H53.1879V198.656H54.4479V194.771C54.4479 192.986 55.3029 192.116 56.7879 192.116C57.0129 192.116 57.2229 192.131 57.4479 192.161V191.051ZM60.0281 198.656H61.2881V192.146H63.5081V191.066H61.2881V189.941C61.2881 189.026 61.6631 188.636 62.5481 188.636C62.8481 188.636 63.1781 188.666 63.5381 188.741V187.676C63.1481 187.586 62.7581 187.541 62.3831 187.541C60.7781 187.541 60.0281 188.276 60.0281 189.911V191.066H58.4681V192.146H60.0281V198.656ZM64.3813 194.861C64.3513 197.006 65.9863 198.911 68.2813 198.866C70.5763 198.911 72.2113 197.006 72.1813 194.861C72.2113 192.716 70.5763 190.811 68.2813 190.856C65.9863 190.811 64.3513 192.716 64.3813 194.861ZM70.8613 194.861C70.8613 195.686 70.6213 196.376 70.1413 196.901C69.6763 197.426 69.0463 197.696 68.2813 197.696C67.5163 197.696 66.8863 197.426 66.4063 196.901C65.9413 196.376 65.7013 195.686 65.7013 194.861C65.7013 194.036 65.9413 193.346 66.4063 192.821C66.8863 192.296 67.5163 192.026 68.2813 192.026C69.0463 192.026 69.6763 192.296 70.1413 192.821C70.6213 193.346 70.8613 194.036 70.8613 194.861ZM78.6002 191.051C78.4052 190.976 78.1652 190.946 77.9102 190.946C76.7852 190.946 75.9452 191.516 75.6002 192.491V191.066H74.3402V198.656H75.6002V194.771C75.6002 192.986 76.4552 192.116 77.9402 192.116C78.1652 192.116 78.3752 192.131 78.6002 192.161V191.051ZM91.8047 193.766C91.8047 191.906 90.8897 190.856 89.2097 190.856C87.9347 190.856 86.9297 191.471 86.5247 192.431C86.1647 191.411 85.3247 190.856 84.1697 190.856C83.0147 190.856 82.0847 191.396 81.6647 192.341V191.066H80.4047V198.656H81.6647V194.141C81.6647 192.866 82.5647 192.026 83.8697 192.026C84.9947 192.026 85.4747 192.641 85.4747 194.066V198.656H86.7347V194.141C86.7347 192.866 87.6347 192.026 88.9397 192.026C90.0647 192.026 90.5447 192.641 90.5447 194.066V198.656H91.8047V193.766ZM100.318 191.066V192.461C99.8829 191.486 98.7879 190.856 97.5129 190.856C95.4279 190.856 93.8979 192.521 93.8979 194.861C93.8979 197.201 95.4279 198.866 97.5129 198.866C98.7879 198.866 99.8829 198.236 100.318 197.261V198.656H101.578V191.066H100.318ZM100.378 194.861C100.378 195.686 100.138 196.376 99.6579 196.901C99.1929 197.426 98.5629 197.696 97.7979 197.696C97.0329 197.696 96.4029 197.426 95.9229 196.901C95.4579 196.376 95.2179 195.686 95.2179 194.861C95.2179 194.036 95.4579 193.346 95.9229 192.821C96.4029 192.296 97.0329 192.026 97.7979 192.026C98.5629 192.026 99.1929 192.296 99.6579 192.821C100.138 193.346 100.378 194.036 100.378 194.861ZM110.882 193.796C110.882 191.921 109.907 190.856 108.182 190.856C106.937 190.856 105.962 191.396 105.542 192.356V191.066H104.282V198.656H105.542V194.141C105.542 192.866 106.517 192.026 107.882 192.026C109.082 192.026 109.622 192.656 109.622 194.096V198.656H110.882V193.796ZM112.985 194.861C112.985 197.171 114.575 198.866 116.885 198.866C118.28 198.866 119.42 198.281 120.065 197.216L119.075 196.526C118.61 197.291 117.845 197.696 116.9 197.696C116.135 197.696 115.505 197.441 115.025 196.916C114.545 196.391 114.305 195.716 114.305 194.861C114.305 194.006 114.545 193.331 115.025 192.806C115.505 192.281 116.135 192.026 116.9 192.026C117.845 192.026 118.61 192.431 119.075 193.196L120.065 192.506C119.42 191.441 118.28 190.856 116.885 190.856C114.575 190.856 112.985 192.551 112.985 194.861ZM128.743 195.251C128.773 195.026 128.788 194.801 128.788 194.576C128.788 192.371 127.288 190.856 125.173 190.856C122.938 190.856 121.378 192.551 121.378 194.876C121.378 197.231 122.983 198.866 125.278 198.866C126.673 198.866 127.843 198.266 128.578 197.231L127.723 196.511C127.093 197.306 126.283 197.696 125.308 197.696C123.823 197.696 122.803 196.766 122.668 195.251H128.743ZM122.698 194.231C122.923 192.866 123.838 192.026 125.173 192.026C126.493 192.026 127.378 192.836 127.498 194.231H122.698ZM130.157 197.861C130.157 198.401 130.517 198.776 131.057 198.776C131.597 198.776 131.957 198.401 131.957 197.861C131.957 197.336 131.597 196.976 131.057 196.976C130.517 196.976 130.157 197.336 130.157 197.861ZM145.269 188.156V192.656H139.269V188.156H137.949V198.656H139.269V193.886H145.269V198.656H146.589V188.156H145.269ZM156.326 195.251C156.356 195.026 156.371 194.801 156.371 194.576C156.371 192.371 154.871 190.856 152.756 190.856C150.521 190.856 148.961 192.551 148.961 194.876C148.961 197.231 150.566 198.866 152.861 198.866C154.256 198.866 155.426 198.266 156.161 197.231L155.306 196.511C154.676 197.306 153.866 197.696 152.891 197.696C151.406 197.696 150.386 196.766 150.251 195.251H156.326ZM150.281 194.231C150.506 192.866 151.421 192.026 152.756 192.026C154.076 192.026 154.961 192.836 155.081 194.231H150.281ZM162.756 191.051C162.561 190.976 162.321 190.946 162.066 190.946C160.941 190.946 160.101 191.516 159.756 192.491V191.066H158.496V198.656H159.756V194.771C159.756 192.986 160.611 192.116 162.096 192.116C162.321 192.116 162.531 192.131 162.756 192.161V191.051ZM167.867 195.821C167.867 197.621 169.172 198.866 171.137 198.866C173.102 198.866 174.407 197.621 174.407 195.821V191.066H173.147V195.746C173.147 197.006 172.412 197.696 171.137 197.696C169.862 197.696 169.127 197.006 169.127 195.746V191.066H167.867V195.821ZM183.553 193.796C183.553 191.921 182.578 190.856 180.853 190.856C179.608 190.856 178.633 191.396 178.213 192.356V191.066H176.953V198.656H178.213V194.141C178.213 192.866 179.188 192.026 180.553 192.026C181.753 192.026 182.293 192.656 182.293 194.096V198.656H183.553V193.796ZM192.076 187.676V192.461C191.611 191.486 190.531 190.856 189.256 190.856C187.186 190.856 185.656 192.521 185.656 194.861C185.656 197.201 187.186 198.866 189.256 198.866C190.531 198.866 191.611 198.236 192.076 197.261V198.656H193.336V187.676H192.076ZM192.136 194.861C192.136 195.686 191.896 196.376 191.416 196.901C190.951 197.426 190.321 197.696 189.556 197.696C188.791 197.696 188.161 197.426 187.681 196.901C187.216 196.376 186.976 195.686 186.976 194.861C186.976 194.036 187.216 193.346 187.681 192.821C188.161 192.296 188.791 192.026 189.556 192.026C190.321 192.026 190.951 192.296 191.416 192.821C191.896 193.346 192.136 194.036 192.136 194.861ZM202.864 195.251C202.894 195.026 202.909 194.801 202.909 194.576C202.909 192.371 201.409 190.856 199.294 190.856C197.059 190.856 195.499 192.551 195.499 194.876C195.499 197.231 197.104 198.866 199.399 198.866C200.794 198.866 201.964 198.266 202.699 197.231L201.844 196.511C201.214 197.306 200.404 197.696 199.429 197.696C197.944 197.696 196.924 196.766 196.789 195.251H202.864ZM196.819 194.231C197.044 192.866 197.959 192.026 199.294 192.026C200.614 192.026 201.499 192.836 201.619 194.231H196.819ZM209.294 191.051C209.099 190.976 208.859 190.946 208.604 190.946C207.479 190.946 206.639 191.516 206.294 192.491V191.066H205.034V198.656H206.294V194.771C206.294 192.986 207.149 192.116 208.634 192.116C208.859 192.116 209.069 192.131 209.294 192.161V191.051ZM210.29 197.216C210.89 198.236 212.135 198.866 213.68 198.866C215.54 198.866 216.665 197.921 216.665 196.481C216.665 195.416 216.02 194.741 214.52 194.396L213.185 194.096C212.165 193.856 211.82 193.571 211.82 193.076C211.82 192.401 212.39 191.996 213.47 191.996C214.415 191.996 215.18 192.311 215.675 192.896L216.545 192.146C215.93 191.321 214.865 190.856 213.545 190.856C211.7 190.856 210.56 191.771 210.56 193.106C210.56 194.171 211.31 194.861 212.87 195.221L214.07 195.491C215.03 195.716 215.405 196.031 215.405 196.571C215.405 197.276 214.745 197.726 213.665 197.726C212.63 197.726 211.745 197.321 211.205 196.541L210.29 197.216ZM219.226 196.706C219.226 198.071 220.036 198.776 221.536 198.776C222.016 198.776 222.466 198.716 222.901 198.581V197.531C222.466 197.621 222.061 197.666 221.716 197.666C220.861 197.666 220.486 197.351 220.486 196.616V192.146H222.871V191.066H220.486V188.816H219.226V191.066H217.711V192.146H219.226V196.706ZM230.557 191.066V192.461C230.122 191.486 229.027 190.856 227.752 190.856C225.667 190.856 224.137 192.521 224.137 194.861C224.137 197.201 225.667 198.866 227.752 198.866C229.027 198.866 230.122 198.236 230.557 197.261V198.656H231.817V191.066H230.557ZM230.617 194.861C230.617 195.686 230.377 196.376 229.897 196.901C229.432 197.426 228.802 197.696 228.037 197.696C227.272 197.696 226.642 197.426 226.162 196.901C225.697 196.376 225.457 195.686 225.457 194.861C225.457 194.036 225.697 193.346 226.162 192.821C226.642 192.296 227.272 192.026 228.037 192.026C228.802 192.026 229.432 192.296 229.897 192.821C230.377 193.346 230.617 194.036 230.617 194.861ZM241.121 193.796C241.121 191.921 240.146 190.856 238.421 190.856C237.176 190.856 236.201 191.396 235.781 192.356V191.066H234.521V198.656H235.781V194.141C235.781 192.866 236.756 192.026 238.121 192.026C239.321 192.026 239.861 192.656 239.861 194.096V198.656H241.121V193.796ZM249.644 187.676V192.461C249.179 191.486 248.099 190.856 246.824 190.856C244.754 190.856 243.224 192.521 243.224 194.861C243.224 197.201 244.754 198.866 246.824 198.866C248.099 198.866 249.179 198.236 249.644 197.261V198.656H250.904V187.676H249.644ZM249.704 194.861C249.704 195.686 249.464 196.376 248.984 196.901C248.519 197.426 247.889 197.696 247.124 197.696C246.359 197.696 245.729 197.426 245.249 196.901C244.784 196.376 244.544 195.686 244.544 194.861C244.544 194.036 244.784 193.346 245.249 192.821C245.729 192.296 246.359 192.026 247.124 192.026C247.889 192.026 248.519 192.296 248.984 192.821C249.464 193.346 249.704 194.036 249.704 194.861ZM253.383 188.606C253.383 189.101 253.758 189.476 254.253 189.476C254.748 189.476 255.123 189.101 255.123 188.606C255.123 188.111 254.748 187.736 254.253 187.736C253.758 187.736 253.383 188.111 253.383 188.606ZM253.623 198.656H254.883V191.066H253.623V198.656ZM264.192 193.796C264.192 191.921 263.217 190.856 261.492 190.856C260.247 190.856 259.272 191.396 258.852 192.356V191.066H257.592V198.656H258.852V194.141C258.852 192.866 259.827 192.026 261.192 192.026C262.392 192.026 262.932 192.656 262.932 194.096V198.656H264.192V193.796ZM272.715 191.066V192.446C272.28 191.471 271.185 190.856 269.91 190.856C267.825 190.856 266.295 192.461 266.295 194.756C266.295 197.051 267.825 198.656 269.91 198.656C271.215 198.656 272.28 198.056 272.715 197.096V197.786C272.715 199.706 271.77 200.696 270.03 200.696C268.965 200.696 268.005 200.321 267.3 199.676L266.58 200.606C267.36 201.401 268.605 201.866 270.03 201.866C272.55 201.866 273.975 200.426 273.975 197.786V191.066H272.715ZM272.775 194.756C272.775 195.551 272.535 196.211 272.055 196.721C271.59 197.231 270.96 197.486 270.195 197.486C269.43 197.486 268.8 197.231 268.32 196.721C267.855 196.211 267.615 195.551 267.615 194.756C267.615 193.961 267.855 193.301 268.32 192.791C268.8 192.281 269.43 192.026 270.195 192.026C270.96 192.026 271.59 192.281 272.055 192.791C272.535 193.301 272.775 193.961 272.775 194.756ZM33.81 213.861C33.78 216.006 35.415 217.911 37.71 217.866C40.005 217.911 41.64 216.006 41.61 213.861C41.64 211.716 40.005 209.811 37.71 209.856C35.415 209.811 33.78 211.716 33.81 213.861ZM40.29 213.861C40.29 214.686 40.05 215.376 39.57 215.901C39.105 216.426 38.475 216.696 37.71 216.696C36.945 216.696 36.315 216.426 35.835 215.901C35.37 215.376 35.13 214.686 35.13 213.861C35.13 213.036 35.37 212.346 35.835 211.821C36.315 211.296 36.945 211.026 37.71 211.026C38.475 211.026 39.105 211.296 39.57 211.821C40.05 212.346 40.29 213.036 40.29 213.861ZM44.2225 217.656H45.4825V211.146H47.7025V210.066H45.4825V208.941C45.4825 208.026 45.8575 207.636 46.7425 207.636C47.0425 207.636 47.3725 207.666 47.7325 207.741V206.676C47.3425 206.586 46.9525 206.541 46.5775 206.541C44.9725 206.541 44.2225 207.276 44.2225 208.911V210.066H42.6625V211.146H44.2225V217.656ZM52.9958 215.706C52.9958 217.071 53.8058 217.776 55.3058 217.776C55.7858 217.776 56.2358 217.716 56.6708 217.581V216.531C56.2358 216.621 55.8308 216.666 55.4858 216.666C54.6308 216.666 54.2558 216.351 54.2558 215.616V211.146H56.6408V210.066H54.2558V207.816H52.9958V210.066H51.4808V211.146H52.9958V215.706ZM65.1932 212.796C65.1932 210.921 64.2182 209.856 62.4932 209.856C61.2482 209.856 60.2732 210.396 59.8532 211.356V206.676H58.5932V217.656H59.8532V213.141C59.8532 211.866 60.8282 211.026 62.1932 211.026C63.3932 211.026 63.9332 211.656 63.9332 213.096V217.656H65.1932V212.796ZM74.6613 214.251C74.6913 214.026 74.7063 213.801 74.7063 213.576C74.7063 211.371 73.2063 209.856 71.0913 209.856C68.8563 209.856 67.2963 211.551 67.2963 213.876C67.2963 216.231 68.9013 217.866 71.1963 217.866C72.5913 217.866 73.7613 217.266 74.4963 216.231L73.6413 215.511C73.0113 216.306 72.2013 216.696 71.2263 216.696C69.7413 216.696 68.7213 215.766 68.5863 214.251H74.6613ZM68.6163 213.231C68.8413 211.866 69.7563 211.026 71.0913 211.026C72.4113 211.026 73.2963 211.836 73.4163 213.231H68.6163ZM79.5675 216.216C80.1675 217.236 81.4125 217.866 82.9575 217.866C84.8175 217.866 85.9425 216.921 85.9425 215.481C85.9425 214.416 85.2975 213.741 83.7975 213.396L82.4625 213.096C81.4425 212.856 81.0975 212.571 81.0975 212.076C81.0975 211.401 81.6675 210.996 82.7475 210.996C83.6925 210.996 84.4575 211.311 84.9525 211.896L85.8225 211.146C85.2075 210.321 84.1425 209.856 82.8225 209.856C80.9775 209.856 79.8375 210.771 79.8375 212.106C79.8375 213.171 80.5875 213.861 82.1475 214.221L83.3475 214.491C84.3075 214.716 84.6825 215.031 84.6825 215.571C84.6825 216.276 84.0225 216.726 82.9425 216.726C81.9075 216.726 81.0225 216.321 80.4825 215.541L79.5675 216.216ZM87.8279 214.821C87.8279 216.621 89.1329 217.866 91.0979 217.866C93.0629 217.866 94.3679 216.621 94.3679 214.821V210.066H93.1079V214.746C93.1079 216.006 92.3729 216.696 91.0979 216.696C89.8229 216.696 89.0879 216.006 89.0879 214.746V210.066H87.8279V214.821ZM104.593 213.861C104.593 211.521 103.063 209.856 100.993 209.856C99.7185 209.856 98.6385 210.486 98.1735 211.461V206.676H96.9135V217.656H98.1735V216.261C98.6385 217.236 99.7185 217.866 100.993 217.866C103.063 217.866 104.593 216.201 104.593 213.861ZM103.273 213.861C103.273 214.686 103.033 215.376 102.553 215.901C102.088 216.426 101.458 216.696 100.693 216.696C99.9285 216.696 99.2985 216.426 98.8185 215.901C98.3535 215.376 98.1135 214.686 98.1135 213.861C98.1135 213.036 98.3535 212.346 98.8185 211.821C99.2985 211.296 99.9285 211.026 100.693 211.026C101.458 211.026 102.088 211.296 102.553 211.821C103.033 212.346 103.273 213.036 103.273 213.861ZM106.532 207.606C106.532 208.101 106.907 208.476 107.402 208.476C107.897 208.476 108.272 208.101 108.272 207.606C108.272 207.111 107.897 206.736 107.402 206.736C106.907 206.736 106.532 207.111 106.532 207.606ZM104.912 220.791C105.212 220.851 105.497 220.881 105.767 220.881C107.282 220.881 108.032 220.086 108.032 218.691V210.066H106.772V218.541C106.772 219.366 106.442 219.741 105.617 219.741C105.392 219.741 105.152 219.711 104.912 219.651V220.791ZM117.567 214.251C117.597 214.026 117.612 213.801 117.612 213.576C117.612 211.371 116.112 209.856 113.997 209.856C111.762 209.856 110.202 211.551 110.202 213.876C110.202 216.231 111.807 217.866 114.102 217.866C115.497 217.866 116.667 217.266 117.402 216.231L116.547 215.511C115.917 216.306 115.107 216.696 114.132 216.696C112.647 216.696 111.627 215.766 111.492 214.251H117.567ZM111.522 213.231C111.747 211.866 112.662 211.026 113.997 211.026C115.317 211.026 116.202 211.836 116.322 213.231H111.522ZM119.196 213.861C119.196 216.171 120.786 217.866 123.096 217.866C124.491 217.866 125.631 217.281 126.276 216.216L125.286 215.526C124.821 216.291 124.056 216.696 123.111 216.696C122.346 216.696 121.716 216.441 121.236 215.916C120.756 215.391 120.516 214.716 120.516 213.861C120.516 213.006 120.756 212.331 121.236 211.806C121.716 211.281 122.346 211.026 123.111 211.026C124.056 211.026 124.821 211.431 125.286 212.196L126.276 211.506C125.631 210.441 124.491 209.856 123.096 209.856C120.786 209.856 119.196 211.551 119.196 213.861ZM128.831 215.706C128.831 217.071 129.641 217.776 131.141 217.776C131.621 217.776 132.071 217.716 132.506 217.581V216.531C132.071 216.621 131.666 216.666 131.321 216.666C130.466 216.666 130.091 216.351 130.091 215.616V211.146H132.476V210.066H130.091V207.816H128.831V210.066H127.316V211.146H128.831V215.706ZM149.285 212.766C149.285 210.906 148.37 209.856 146.69 209.856C145.415 209.856 144.41 210.471 144.005 211.431C143.645 210.411 142.805 209.856 141.65 209.856C140.495 209.856 139.565 210.396 139.145 211.341V210.066H137.885V217.656H139.145V213.141C139.145 211.866 140.045 211.026 141.35 211.026C142.475 211.026 142.955 211.641 142.955 213.066V217.656H144.215V213.141C144.215 211.866 145.115 211.026 146.42 211.026C147.545 211.026 148.025 211.641 148.025 213.066V217.656H149.285V212.766ZM157.798 210.066V211.461C157.363 210.486 156.268 209.856 154.993 209.856C152.908 209.856 151.378 211.521 151.378 213.861C151.378 216.201 152.908 217.866 154.993 217.866C156.268 217.866 157.363 217.236 157.798 216.261V217.656H159.058V210.066H157.798ZM157.858 213.861C157.858 214.686 157.618 215.376 157.138 215.901C156.673 216.426 156.043 216.696 155.278 216.696C154.513 216.696 153.883 216.426 153.403 215.901C152.938 215.376 152.698 214.686 152.698 213.861C152.698 213.036 152.938 212.346 153.403 211.821C153.883 211.296 154.513 211.026 155.278 211.026C156.043 211.026 156.673 211.296 157.138 211.821C157.618 212.346 157.858 213.036 157.858 213.861ZM162.317 215.706C162.317 217.071 163.127 217.776 164.627 217.776C165.107 217.776 165.557 217.716 165.992 217.581V216.531C165.557 216.621 165.152 216.666 164.807 216.666C163.952 216.666 163.577 216.351 163.577 215.616V211.146H165.962V210.066H163.577V207.816H162.317V210.066H160.802V211.146H162.317V215.706ZM168.469 215.706C168.469 217.071 169.279 217.776 170.779 217.776C171.259 217.776 171.709 217.716 172.144 217.581V216.531C171.709 216.621 171.304 216.666 170.959 216.666C170.104 216.666 169.729 216.351 169.729 215.616V211.146H172.114V210.066H169.729V207.816H168.469V210.066H166.954V211.146H168.469V215.706ZM180.745 214.251C180.775 214.026 180.79 213.801 180.79 213.576C180.79 211.371 179.29 209.856 177.175 209.856C174.94 209.856 173.38 211.551 173.38 213.876C173.38 216.231 174.985 217.866 177.28 217.866C178.675 217.866 179.845 217.266 180.58 216.231L179.725 215.511C179.095 216.306 178.285 216.696 177.31 216.696C175.825 216.696 174.805 215.766 174.67 214.251H180.745ZM174.7 213.231C174.925 211.866 175.84 211.026 177.175 211.026C178.495 211.026 179.38 211.836 179.5 213.231H174.7ZM187.174 210.051C186.979 209.976 186.739 209.946 186.484 209.946C185.359 209.946 184.519 210.516 184.174 211.491V210.066H182.914V217.656H184.174V213.771C184.174 211.986 185.029 211.116 186.514 211.116C186.739 211.116 186.949 211.131 187.174 211.161V210.051ZM192.211 207.606C192.211 208.101 192.586 208.476 193.081 208.476C193.576 208.476 193.951 208.101 193.951 207.606C193.951 207.111 193.576 206.736 193.081 206.736C192.586 206.736 192.211 207.111 192.211 207.606ZM192.451 217.656H193.711V210.066H192.451V217.656ZM195.7 216.216C196.3 217.236 197.545 217.866 199.09 217.866C200.95 217.866 202.075 216.921 202.075 215.481C202.075 214.416 201.43 213.741 199.93 213.396L198.595 213.096C197.575 212.856 197.23 212.571 197.23 212.076C197.23 211.401 197.8 210.996 198.88 210.996C199.825 210.996 200.59 211.311 201.085 211.896L201.955 211.146C201.34 210.321 200.275 209.856 198.955 209.856C197.11 209.856 195.97 210.771 195.97 212.106C195.97 213.171 196.72 213.861 198.28 214.221L199.48 214.491C200.44 214.716 200.815 215.031 200.815 215.571C200.815 216.276 200.155 216.726 199.075 216.726C198.04 216.726 197.155 216.321 196.615 215.541L195.7 216.216ZM211.828 210.051C211.633 209.976 211.393 209.946 211.138 209.946C210.013 209.946 209.173 210.516 208.828 211.491V210.066H207.568V217.656H208.828V213.771C208.828 211.986 209.683 211.116 211.168 211.116C211.393 211.116 211.603 211.131 211.828 211.161V210.051ZM219.131 210.066V211.461C218.696 210.486 217.601 209.856 216.326 209.856C214.241 209.856 212.711 211.521 212.711 213.861C212.711 216.201 214.241 217.866 216.326 217.866C217.601 217.866 218.696 217.236 219.131 216.261V217.656H220.391V210.066H219.131ZM219.191 213.861C219.191 214.686 218.951 215.376 218.471 215.901C218.006 216.426 217.376 216.696 216.611 216.696C215.846 216.696 215.216 216.426 214.736 215.901C214.271 215.376 214.031 214.686 214.031 213.861C214.031 213.036 214.271 212.346 214.736 211.821C215.216 211.296 215.846 211.026 216.611 211.026C217.376 211.026 218.006 211.296 218.471 211.821C218.951 212.346 219.191 213.036 219.191 213.861ZM227.355 210.051C227.16 209.976 226.92 209.946 226.665 209.946C225.54 209.946 224.7 210.516 224.355 211.491V210.066H223.095V217.656H224.355V213.771C224.355 211.986 225.21 211.116 226.695 211.116C226.92 211.116 227.13 211.131 227.355 211.161V210.051ZM235.604 214.251C235.634 214.026 235.649 213.801 235.649 213.576C235.649 211.371 234.149 209.856 232.034 209.856C229.799 209.856 228.239 211.551 228.239 213.876C228.239 216.231 229.844 217.866 232.139 217.866C233.534 217.866 234.704 217.266 235.439 216.231L234.584 215.511C233.954 216.306 233.144 216.696 232.169 216.696C230.684 216.696 229.664 215.766 229.529 214.251H235.604ZM229.559 213.231C229.784 211.866 230.699 211.026 232.034 211.026C233.354 211.026 234.239 211.836 234.359 213.231H229.559ZM247.11 210.066V211.461C246.675 210.486 245.58 209.856 244.305 209.856C242.22 209.856 240.69 211.521 240.69 213.861C240.69 216.201 242.22 217.866 244.305 217.866C245.58 217.866 246.675 217.236 247.11 216.261V217.656H248.37V210.066H247.11ZM247.17 213.861C247.17 214.686 246.93 215.376 246.45 215.901C245.985 216.426 245.355 216.696 244.59 216.696C243.825 216.696 243.195 216.426 242.715 215.901C242.25 215.376 242.01 214.686 242.01 213.861C242.01 213.036 242.25 212.346 242.715 211.821C243.195 211.296 243.825 211.026 244.59 211.026C245.355 211.026 245.985 211.296 246.45 211.821C246.93 212.346 247.17 213.036 247.17 213.861ZM257.674 212.796C257.674 210.921 256.699 209.856 254.974 209.856C253.729 209.856 252.754 210.396 252.334 211.356V210.066H251.074V217.656H252.334V213.141C252.334 211.866 253.309 211.026 254.674 211.026C255.874 211.026 256.414 211.656 256.414 213.096V217.656H257.674V212.796ZM266.197 206.676V211.461C265.732 210.486 264.652 209.856 263.377 209.856C261.307 209.856 259.777 211.521 259.777 213.861C259.777 216.201 261.307 217.866 263.377 217.866C264.652 217.866 265.732 217.236 266.197 216.261V217.656H267.457V206.676H266.197ZM266.257 213.861C266.257 214.686 266.017 215.376 265.537 215.901C265.072 216.426 264.442 216.696 263.677 216.696C262.912 216.696 262.282 216.426 261.802 215.901C261.337 215.376 261.097 214.686 261.097 213.861C261.097 213.036 261.337 212.346 261.802 211.821C262.282 211.296 262.912 211.026 263.677 211.026C264.442 211.026 265.072 211.296 265.537 211.821C266.017 212.346 266.257 213.036 266.257 213.861ZM38.61 229.051C38.415 228.976 38.175 228.946 37.92 228.946C36.795 228.946 35.955 229.516 35.61 230.491V229.066H34.35V236.656H35.61V232.771C35.61 230.986 36.465 230.116 37.95 230.116C38.175 230.116 38.385 230.131 38.61 230.161V229.051ZM46.8586 233.251C46.8886 233.026 46.9036 232.801 46.9036 232.576C46.9036 230.371 45.4036 228.856 43.2886 228.856C41.0536 228.856 39.4936 230.551 39.4936 232.876C39.4936 235.231 41.0986 236.866 43.3936 236.866C44.7886 236.866 45.9586 236.266 46.6936 235.231L45.8386 234.511C45.2086 235.306 44.3986 235.696 43.4236 235.696C41.9386 235.696 40.9186 234.766 40.7836 233.251H46.8586ZM40.8136 232.231C41.0386 230.866 41.9536 230.026 43.2886 230.026C44.6086 230.026 45.4936 230.836 45.6136 232.231H40.8136ZM49.4813 236.656H50.7413V230.146H52.9613V229.066H50.7413V227.941C50.7413 227.026 51.1163 226.636 52.0013 226.636C52.3013 226.636 52.6313 226.666 52.9913 226.741V225.676C52.6013 225.586 52.2113 225.541 51.8363 225.541C50.2313 225.541 49.4813 226.276 49.4813 227.911V229.066H47.9213V230.146H49.4813V236.656ZM58.8688 229.051C58.6738 228.976 58.4338 228.946 58.1788 228.946C57.0538 228.946 56.2138 229.516 55.8688 230.491V229.066H54.6088V236.656H55.8688V232.771C55.8688 230.986 56.7238 230.116 58.2088 230.116C58.4338 230.116 58.6438 230.131 58.8688 230.161V229.051ZM67.1174 233.251C67.1474 233.026 67.1624 232.801 67.1624 232.576C67.1624 230.371 65.6624 228.856 63.5474 228.856C61.3124 228.856 59.7524 230.551 59.7524 232.876C59.7524 235.231 61.3574 236.866 63.6524 236.866C65.0474 236.866 66.2174 236.266 66.9524 235.231L66.0974 234.511C65.4674 235.306 64.6574 235.696 63.6824 235.696C62.1974 235.696 61.1774 234.766 61.0424 233.251H67.1174ZM61.0724 232.231C61.2974 230.866 62.2124 230.026 63.5474 230.026C64.8674 230.026 65.7524 230.836 65.8724 232.231H61.0724ZM68.5665 235.216C69.1665 236.236 70.4115 236.866 71.9565 236.866C73.8165 236.866 74.9415 235.921 74.9415 234.481C74.9415 233.416 74.2965 232.741 72.7965 232.396L71.4615 232.096C70.4415 231.856 70.0965 231.571 70.0965 231.076C70.0965 230.401 70.6665 229.996 71.7465 229.996C72.6915 229.996 73.4565 230.311 73.9515 230.896L74.8215 230.146C74.2065 229.321 73.1415 228.856 71.8215 228.856C69.9765 228.856 68.8365 229.771 68.8365 231.106C68.8365 232.171 69.5865 232.861 71.1465 233.221L72.3465 233.491C73.3065 233.716 73.6815 234.031 73.6815 234.571C73.6815 235.276 73.0215 235.726 71.9415 235.726C70.9065 235.726 70.0215 235.321 69.4815 234.541L68.5665 235.216ZM83.577 231.796C83.577 229.921 82.602 228.856 80.877 228.856C79.632 228.856 78.657 229.396 78.237 230.356V225.676H76.977V236.656H78.237V232.141C78.237 230.866 79.212 230.026 80.577 230.026C81.777 230.026 82.317 230.656 82.317 232.096V236.656H83.577V231.796ZM85.9951 226.606C85.9951 227.101 86.3701 227.476 86.8651 227.476C87.3601 227.476 87.7351 227.101 87.7351 226.606C87.7351 226.111 87.3601 225.736 86.8651 225.736C86.3701 225.736 85.9951 226.111 85.9951 226.606ZM86.2351 236.656H87.4951V229.066H86.2351V236.656ZM96.8045 231.796C96.8045 229.921 95.8295 228.856 94.1045 228.856C92.8595 228.856 91.8845 229.396 91.4645 230.356V229.066H90.2045V236.656H91.4645V232.141C91.4645 230.866 92.4395 230.026 93.8045 230.026C95.0045 230.026 95.5445 230.656 95.5445 232.096V236.656H96.8045V231.796ZM105.328 229.066V230.446C104.893 229.471 103.798 228.856 102.523 228.856C100.438 228.856 98.9077 230.461 98.9077 232.756C98.9077 235.051 100.438 236.656 102.523 236.656C103.828 236.656 104.893 236.056 105.328 235.096V235.786C105.328 237.706 104.383 238.696 102.643 238.696C101.578 238.696 100.618 238.321 99.9127 237.676L99.1927 238.606C99.9727 239.401 101.218 239.866 102.643 239.866C105.163 239.866 106.588 238.426 106.588 235.786V229.066H105.328ZM105.388 232.756C105.388 233.551 105.148 234.211 104.668 234.721C104.203 235.231 103.573 235.486 102.808 235.486C102.043 235.486 101.413 235.231 100.933 234.721C100.468 234.211 100.228 233.551 100.228 232.756C100.228 231.961 100.468 231.301 100.933 230.791C101.413 230.281 102.043 230.026 102.808 230.026C103.573 230.026 104.203 230.281 104.668 230.791C105.148 231.301 105.388 231.961 105.388 232.756ZM108.616 238.891H109.606L110.656 234.841H109.336L108.616 238.891ZM123.192 233.251C123.222 233.026 123.237 232.801 123.237 232.576C123.237 230.371 121.737 228.856 119.622 228.856C117.387 228.856 115.827 230.551 115.827 232.876C115.827 235.231 117.432 236.866 119.727 236.866C121.122 236.866 122.292 236.266 123.027 235.231L122.172 234.511C121.542 235.306 120.732 235.696 119.757 235.696C118.272 235.696 117.252 234.766 117.117 233.251H123.192ZM117.147 232.231C117.372 230.866 118.287 230.026 119.622 230.026C120.942 230.026 121.827 230.836 121.947 232.231H117.147ZM130.241 229.066L127.826 235.276L125.411 229.066H124.061L127.151 236.656H128.501L131.591 229.066H130.241ZM139.818 233.251C139.848 233.026 139.863 232.801 139.863 232.576C139.863 230.371 138.363 228.856 136.248 228.856C134.013 228.856 132.453 230.551 132.453 232.876C132.453 235.231 134.058 236.866 136.353 236.866C137.748 236.866 138.918 236.266 139.653 235.231L138.798 234.511C138.168 235.306 137.358 235.696 136.383 235.696C134.898 235.696 133.878 234.766 133.743 233.251H139.818ZM133.773 232.231C133.998 230.866 134.913 230.026 136.248 230.026C137.568 230.026 138.453 230.836 138.573 232.231H133.773ZM146.247 229.051C146.052 228.976 145.812 228.946 145.557 228.946C144.432 228.946 143.592 229.516 143.247 230.491V229.066H141.987V236.656H143.247V232.771C143.247 230.986 144.102 230.116 145.587 230.116C145.812 230.116 146.022 230.131 146.247 230.161V229.051ZM153.226 229.066V233.371C153.226 234.631 152.236 235.486 150.856 235.486C149.671 235.486 149.116 234.856 149.116 233.416V229.066H147.856V233.716C147.856 235.621 148.861 236.656 150.556 236.656C151.801 236.656 152.791 236.116 153.226 235.156V235.921C153.226 237.766 152.326 238.696 150.751 238.696C149.851 238.696 148.981 238.381 148.366 237.826L147.631 238.726C148.336 239.446 149.506 239.866 150.781 239.866C153.121 239.866 154.486 238.486 154.486 235.921V229.066H153.226ZM160.984 234.706C160.984 236.071 161.794 236.776 163.294 236.776C163.774 236.776 164.224 236.716 164.659 236.581V235.531C164.224 235.621 163.819 235.666 163.474 235.666C162.619 235.666 162.244 235.351 162.244 234.616V230.146H164.629V229.066H162.244V226.816H160.984V229.066H159.469V230.146H160.984V234.706ZM166.356 226.606C166.356 227.101 166.731 227.476 167.226 227.476C167.721 227.476 168.096 227.101 168.096 226.606C168.096 226.111 167.721 225.736 167.226 225.736C166.731 225.736 166.356 226.111 166.356 226.606ZM166.596 236.656H167.856V229.066H166.596V236.656ZM181.966 231.766C181.966 229.906 181.051 228.856 179.371 228.856C178.096 228.856 177.091 229.471 176.686 230.431C176.326 229.411 175.486 228.856 174.331 228.856C173.176 228.856 172.246 229.396 171.826 230.341V229.066H170.566V236.656H171.826V232.141C171.826 230.866 172.726 230.026 174.031 230.026C175.156 230.026 175.636 230.641 175.636 232.066V236.656H176.896V232.141C176.896 230.866 177.796 230.026 179.101 230.026C180.226 230.026 180.706 230.641 180.706 232.066V236.656H181.966V231.766ZM191.424 233.251C191.454 233.026 191.469 232.801 191.469 232.576C191.469 230.371 189.969 228.856 187.854 228.856C185.619 228.856 184.059 230.551 184.059 232.876C184.059 235.231 185.664 236.866 187.959 236.866C189.354 236.866 190.524 236.266 191.259 235.231L190.404 234.511C189.774 235.306 188.964 235.696 187.989 235.696C186.504 235.696 185.484 234.766 185.349 233.251H191.424ZM185.379 232.231C185.604 230.866 186.519 230.026 187.854 230.026C189.174 230.026 190.059 230.836 190.179 232.231H185.379ZM197.29 236.656H198.61V226.156H197.29V236.656ZM205.004 236.656H206.264V225.676H205.004V236.656ZM208.734 226.606C208.734 227.101 209.109 227.476 209.604 227.476C210.099 227.476 210.474 227.101 210.474 226.606C210.474 226.111 210.099 225.736 209.604 225.736C209.109 225.736 208.734 226.111 208.734 226.606ZM208.974 236.656H210.234V229.066H208.974V236.656ZM212.224 235.216C212.824 236.236 214.069 236.866 215.614 236.866C217.474 236.866 218.599 235.921 218.599 234.481C218.599 233.416 217.954 232.741 216.454 232.396L215.119 232.096C214.099 231.856 213.754 231.571 213.754 231.076C213.754 230.401 214.324 229.996 215.404 229.996C216.349 229.996 217.114 230.311 217.609 230.896L218.479 230.146C217.864 229.321 216.799 228.856 215.479 228.856C213.634 228.856 212.494 229.771 212.494 231.106C212.494 232.171 213.244 232.861 214.804 233.221L216.004 233.491C216.964 233.716 217.339 234.031 217.339 234.571C217.339 235.276 216.679 235.726 215.599 235.726C214.564 235.726 213.679 235.321 213.139 234.541L212.224 235.216ZM221.16 234.706C221.16 236.071 221.97 236.776 223.47 236.776C223.95 236.776 224.4 236.716 224.835 236.581V235.531C224.4 235.621 223.995 235.666 223.65 235.666C222.795 235.666 222.42 235.351 222.42 234.616V230.146H224.805V229.066H222.42V226.816H221.16V229.066H219.645V230.146H221.16V234.706ZM233.436 233.251C233.466 233.026 233.481 232.801 233.481 232.576C233.481 230.371 231.981 228.856 229.866 228.856C227.631 228.856 226.071 230.551 226.071 232.876C226.071 235.231 227.676 236.866 229.971 236.866C231.366 236.866 232.536 236.266 233.271 235.231L232.416 234.511C231.786 235.306 230.976 235.696 230.001 235.696C228.516 235.696 227.496 234.766 227.361 233.251H233.436ZM227.391 232.231C227.616 230.866 228.531 230.026 229.866 230.026C231.186 230.026 232.071 230.836 232.191 232.231H227.391ZM242.205 231.796C242.205 229.921 241.23 228.856 239.505 228.856C238.26 228.856 237.285 229.396 236.865 230.356V229.066H235.605V236.656H236.865V232.141C236.865 230.866 237.84 230.026 239.205 230.026C240.405 230.026 240.945 230.656 240.945 232.096V236.656H242.205V231.796ZM248.64 234.706C248.64 236.071 249.45 236.776 250.95 236.776C251.43 236.776 251.88 236.716 252.315 236.581V235.531C251.88 235.621 251.475 235.666 251.13 235.666C250.275 235.666 249.9 235.351 249.9 234.616V230.146H252.285V229.066H249.9V226.816H248.64V229.066H247.125V230.146H248.64V234.706ZM260.838 231.796C260.838 229.921 259.863 228.856 258.138 228.856C256.893 228.856 255.918 229.396 255.498 230.356V225.676H254.238V236.656H255.498V232.141C255.498 230.866 256.473 230.026 257.838 230.026C259.038 230.026 259.578 230.656 259.578 232.096V236.656H260.838V231.796ZM270.306 233.251C270.336 233.026 270.351 232.801 270.351 232.576C270.351 230.371 268.851 228.856 266.736 228.856C264.501 228.856 262.941 230.551 262.941 232.876C262.941 235.231 264.546 236.866 266.841 236.866C268.236 236.866 269.406 236.266 270.141 235.231L269.286 234.511C268.656 235.306 267.846 235.696 266.871 235.696C265.386 235.696 264.366 234.766 264.231 233.251H270.306ZM264.261 232.231C264.486 230.866 265.401 230.026 266.736 230.026C268.056 230.026 268.941 230.836 269.061 232.231H264.261ZM276.735 229.051C276.54 228.976 276.3 228.946 276.045 228.946C274.92 228.946 274.08 229.516 273.735 230.491V229.066H272.475V236.656H273.735V232.771C273.735 230.986 274.59 230.116 276.075 230.116C276.3 230.116 276.51 230.131 276.735 230.161V229.051ZM284.984 233.251C285.014 233.026 285.029 232.801 285.029 232.576C285.029 230.371 283.529 228.856 281.414 228.856C279.179 228.856 277.619 230.551 277.619 232.876C277.619 235.231 279.224 236.866 281.519 236.866C282.914 236.866 284.084 236.266 284.819 235.231L283.964 234.511C283.334 235.306 282.524 235.696 281.549 235.696C280.064 235.696 279.044 234.766 278.909 233.251H284.984ZM278.939 232.231C279.164 230.866 280.079 230.026 281.414 230.026C282.734 230.026 283.619 230.836 283.739 232.231H278.939ZM40.23 248.066V249.461C39.795 248.486 38.7 247.856 37.425 247.856C35.34 247.856 33.81 249.521 33.81 251.861C33.81 254.201 35.34 255.866 37.425 255.866C38.7 255.866 39.795 255.236 40.23 254.261V255.656H41.49V248.066H40.23ZM40.29 251.861C40.29 252.686 40.05 253.376 39.57 253.901C39.105 254.426 38.475 254.696 37.71 254.696C36.945 254.696 36.315 254.426 35.835 253.901C35.37 253.376 35.13 252.686 35.13 251.861C35.13 251.036 35.37 250.346 35.835 249.821C36.315 249.296 36.945 249.026 37.71 249.026C38.475 249.026 39.105 249.296 39.57 249.821C40.05 250.346 40.29 251.036 40.29 251.861ZM44.1938 255.656H45.4538V244.676H44.1938V255.656ZM57.6738 248.066L55.7388 254.111L53.7288 248.066H52.3488L50.3388 254.111L48.4038 248.066H47.1288L49.6188 255.656H50.9988L53.0388 249.506L55.0788 255.656H56.4588L58.9488 248.066H57.6738ZM66.3775 248.066V249.461C65.9425 248.486 64.8475 247.856 63.5725 247.856C61.4875 247.856 59.9575 249.521 59.9575 251.861C59.9575 254.201 61.4875 255.866 63.5725 255.866C64.8475 255.866 65.9425 255.236 66.3775 254.261V255.656H67.6375V248.066H66.3775ZM66.4375 251.861C66.4375 252.686 66.1975 253.376 65.7175 253.901C65.2525 254.426 64.6225 254.696 63.8575 254.696C63.0925 254.696 62.4625 254.426 61.9825 253.901C61.5175 253.376 61.2775 252.686 61.2775 251.861C61.2775 251.036 61.5175 250.346 61.9825 249.821C62.4625 249.296 63.0925 249.026 63.8575 249.026C64.6225 249.026 65.2525 249.296 65.7175 249.821C66.1975 250.346 66.4375 251.036 66.4375 251.861ZM75.5162 248.066V252.371C75.5162 253.631 74.5262 254.486 73.1462 254.486C71.9612 254.486 71.4062 253.856 71.4062 252.416V248.066H70.1462V252.716C70.1462 254.621 71.1512 255.656 72.8462 255.656C74.0912 255.656 75.0812 255.116 75.5162 254.156V254.921C75.5162 256.766 74.6162 257.696 73.0412 257.696C72.1412 257.696 71.2712 257.381 70.6562 256.826L69.9212 257.726C70.6262 258.446 71.7962 258.866 73.0712 258.866C75.4112 258.866 76.7762 257.486 76.7762 254.921V248.066H75.5162ZM78.7618 254.216C79.3618 255.236 80.6068 255.866 82.1518 255.866C84.0118 255.866 85.1368 254.921 85.1368 253.481C85.1368 252.416 84.4918 251.741 82.9918 251.396L81.6568 251.096C80.6368 250.856 80.2918 250.571 80.2918 250.076C80.2918 249.401 80.8618 248.996 81.9418 248.996C82.8868 248.996 83.6518 249.311 84.1468 249.896L85.0168 249.146C84.4018 248.321 83.3368 247.856 82.0168 247.856C80.1718 247.856 79.0318 248.771 79.0318 250.106C79.0318 251.171 79.7818 251.861 81.3418 252.221L82.5418 252.491C83.5018 252.716 83.8768 253.031 83.8768 253.571C83.8768 254.276 83.2168 254.726 82.1368 254.726C81.1018 254.726 80.2168 254.321 79.6768 253.541L78.7618 254.216ZM89.9093 254.216C90.5093 255.236 91.7543 255.866 93.2993 255.866C95.1593 255.866 96.2843 254.921 96.2843 253.481C96.2843 252.416 95.6393 251.741 94.1393 251.396L92.8043 251.096C91.7843 250.856 91.4393 250.571 91.4393 250.076C91.4393 249.401 92.0093 248.996 93.0893 248.996C94.0343 248.996 94.7993 249.311 95.2943 249.896L96.1643 249.146C95.5493 248.321 94.4843 247.856 93.1643 247.856C91.3193 247.856 90.1793 248.771 90.1793 250.106C90.1793 251.171 90.9293 251.861 92.4893 252.221L93.6893 252.491C94.6493 252.716 95.0243 253.031 95.0243 253.571C95.0243 254.276 94.3643 254.726 93.2843 254.726C92.2493 254.726 91.3643 254.321 90.8243 253.541L89.9093 254.216ZM97.7797 251.861C97.7497 254.006 99.3847 255.911 101.68 255.866C103.975 255.911 105.61 254.006 105.58 251.861C105.61 249.716 103.975 247.811 101.68 247.856C99.3847 247.811 97.7497 249.716 97.7797 251.861ZM104.26 251.861C104.26 252.686 104.02 253.376 103.54 253.901C103.075 254.426 102.445 254.696 101.68 254.696C100.915 254.696 100.285 254.426 99.8047 253.901C99.3397 253.376 99.0997 252.686 99.0997 251.861C99.0997 251.036 99.3397 250.346 99.8047 249.821C100.285 249.296 100.915 249.026 101.68 249.026C102.445 249.026 103.075 249.296 103.54 249.821C104.02 250.346 104.26 251.036 104.26 251.861ZM119.139 250.766C119.139 248.906 118.224 247.856 116.544 247.856C115.269 247.856 114.264 248.471 113.859 249.431C113.499 248.411 112.659 247.856 111.504 247.856C110.349 247.856 109.419 248.396 108.999 249.341V248.066H107.739V255.656H108.999V251.141C108.999 249.866 109.899 249.026 111.204 249.026C112.329 249.026 112.809 249.641 112.809 251.066V255.656H114.069V251.141C114.069 249.866 114.969 249.026 116.274 249.026C117.399 249.026 117.879 249.641 117.879 251.066V255.656H119.139V250.766ZM128.597 252.251C128.627 252.026 128.642 251.801 128.642 251.576C128.642 249.371 127.142 247.856 125.027 247.856C122.792 247.856 121.232 249.551 121.232 251.876C121.232 254.231 122.837 255.866 125.132 255.866C126.527 255.866 127.697 255.266 128.432 254.231L127.577 253.511C126.947 254.306 126.137 254.696 125.162 254.696C123.677 254.696 122.657 253.766 122.522 252.251H128.597ZM122.552 251.231C122.777 249.866 123.692 249.026 125.027 249.026C126.347 249.026 127.232 249.836 127.352 251.231H122.552ZM131.175 253.706C131.175 255.071 131.985 255.776 133.485 255.776C133.965 255.776 134.415 255.716 134.85 255.581V254.531C134.415 254.621 134.01 254.666 133.665 254.666C132.81 254.666 132.435 254.351 132.435 253.616V249.146H134.82V248.066H132.435V245.816H131.175V248.066H129.66V249.146H131.175V253.706ZM143.372 250.796C143.372 248.921 142.397 247.856 140.672 247.856C139.427 247.856 138.452 248.396 138.032 249.356V244.676H136.772V255.656H138.032V251.141C138.032 249.866 139.007 249.026 140.372 249.026C141.572 249.026 142.112 249.656 142.112 251.096V255.656H143.372V250.796ZM145.79 245.606C145.79 246.101 146.165 246.476 146.66 246.476C147.155 246.476 147.53 246.101 147.53 245.606C147.53 245.111 147.155 244.736 146.66 244.736C146.165 244.736 145.79 245.111 145.79 245.606ZM146.03 255.656H147.29V248.066H146.03V255.656ZM156.599 250.796C156.599 248.921 155.624 247.856 153.899 247.856C152.654 247.856 151.679 248.396 151.259 249.356V248.066H149.999V255.656H151.259V251.141C151.259 249.866 152.234 249.026 153.599 249.026C154.799 249.026 155.339 249.656 155.339 251.096V255.656H156.599V250.796ZM165.123 248.066V249.446C164.688 248.471 163.593 247.856 162.318 247.856C160.233 247.856 158.703 249.461 158.703 251.756C158.703 254.051 160.233 255.656 162.318 255.656C163.623 255.656 164.688 255.056 165.123 254.096V254.786C165.123 256.706 164.178 257.696 162.438 257.696C161.373 257.696 160.413 257.321 159.708 256.676L158.988 257.606C159.768 258.401 161.013 258.866 162.438 258.866C164.958 258.866 166.383 257.426 166.383 254.786V248.066H165.123ZM165.183 251.756C165.183 252.551 164.943 253.211 164.463 253.721C163.998 254.231 163.368 254.486 162.603 254.486C161.838 254.486 161.208 254.231 160.728 253.721C160.263 253.211 160.023 252.551 160.023 251.756C160.023 250.961 160.263 250.301 160.728 249.791C161.208 249.281 161.838 249.026 162.603 249.026C163.368 249.026 163.998 249.281 164.463 249.791C164.943 250.301 165.183 250.961 165.183 251.756ZM178.423 248.066V249.461C177.988 248.486 176.893 247.856 175.618 247.856C173.533 247.856 172.003 249.521 172.003 251.861C172.003 254.201 173.533 255.866 175.618 255.866C176.893 255.866 177.988 255.236 178.423 254.261V255.656H179.683V248.066H178.423ZM178.483 251.861C178.483 252.686 178.243 253.376 177.763 253.901C177.298 254.426 176.668 254.696 175.903 254.696C175.138 254.696 174.508 254.426 174.028 253.901C173.563 253.376 173.323 252.686 173.323 251.861C173.323 251.036 173.563 250.346 174.028 249.821C174.508 249.296 175.138 249.026 175.903 249.026C176.668 249.026 177.298 249.296 177.763 249.821C178.243 250.346 178.483 251.036 178.483 251.861ZM181.847 251.861C181.847 254.171 183.437 255.866 185.747 255.866C187.142 255.866 188.282 255.281 188.927 254.216L187.937 253.526C187.472 254.291 186.707 254.696 185.762 254.696C184.997 254.696 184.367 254.441 183.887 253.916C183.407 253.391 183.167 252.716 183.167 251.861C183.167 251.006 183.407 250.331 183.887 249.806C184.367 249.281 184.997 249.026 185.762 249.026C186.707 249.026 187.472 249.431 187.937 250.196L188.927 249.506C188.282 248.441 187.142 247.856 185.747 247.856C183.437 247.856 181.847 249.551 181.847 251.861ZM191.482 253.706C191.482 255.071 192.292 255.776 193.792 255.776C194.272 255.776 194.722 255.716 195.157 255.581V254.531C194.722 254.621 194.317 254.666 193.972 254.666C193.117 254.666 192.742 254.351 192.742 253.616V249.146H195.127V248.066H192.742V245.816H191.482V248.066H189.967V249.146H191.482V253.706ZM196.854 245.606C196.854 246.101 197.229 246.476 197.724 246.476C198.219 246.476 198.594 246.101 198.594 245.606C198.594 245.111 198.219 244.736 197.724 244.736C197.229 244.736 196.854 245.111 196.854 245.606ZM197.094 255.656H198.354V248.066H197.094V255.656ZM200.524 251.861C200.494 254.006 202.129 255.911 204.424 255.866C206.719 255.911 208.354 254.006 208.324 251.861C208.354 249.716 206.719 247.811 204.424 247.856C202.129 247.811 200.494 249.716 200.524 251.861ZM207.004 251.861C207.004 252.686 206.764 253.376 206.284 253.901C205.819 254.426 205.189 254.696 204.424 254.696C203.659 254.696 203.029 254.426 202.549 253.901C202.084 253.376 201.844 252.686 201.844 251.861C201.844 251.036 202.084 250.346 202.549 249.821C203.029 249.296 203.659 249.026 204.424 249.026C205.189 249.026 205.819 249.296 206.284 249.821C206.764 250.346 207.004 251.036 207.004 251.861ZM217.083 250.796C217.083 248.921 216.108 247.856 214.383 247.856C213.138 247.856 212.163 248.396 211.743 249.356V248.066H210.483V255.656H211.743V251.141C211.743 249.866 212.718 249.026 214.083 249.026C215.283 249.026 215.823 249.656 215.823 251.096V255.656H217.083V250.796ZM225.606 248.066V249.461C225.171 248.486 224.076 247.856 222.801 247.856C220.716 247.856 219.186 249.521 219.186 251.861C219.186 254.201 220.716 255.866 222.801 255.866C224.076 255.866 225.171 255.236 225.606 254.261V255.656H226.866V248.066H225.606ZM225.666 251.861C225.666 252.686 225.426 253.376 224.946 253.901C224.481 254.426 223.851 254.696 223.086 254.696C222.321 254.696 221.691 254.426 221.211 253.901C220.746 253.376 220.506 252.686 220.506 251.861C220.506 251.036 220.746 250.346 221.211 249.821C221.691 249.296 222.321 249.026 223.086 249.026C223.851 249.026 224.481 249.296 224.946 249.821C225.426 250.346 225.666 251.036 225.666 251.861ZM237.25 251.861C237.25 249.521 235.72 247.856 233.65 247.856C232.375 247.856 231.295 248.486 230.83 249.461V244.676H229.57V255.656H230.83V254.261C231.295 255.236 232.375 255.866 233.65 255.866C235.72 255.866 237.25 254.201 237.25 251.861ZM235.93 251.861C235.93 252.686 235.69 253.376 235.21 253.901C234.745 254.426 234.115 254.696 233.35 254.696C232.585 254.696 231.955 254.426 231.475 253.901C231.01 253.376 230.77 252.686 230.77 251.861C230.77 251.036 231.01 250.346 231.475 249.821C231.955 249.296 232.585 249.026 233.35 249.026C234.115 249.026 234.745 249.296 235.21 249.821C235.69 250.346 235.93 251.036 235.93 251.861ZM239.413 255.656H240.673V244.676H239.413V255.656ZM250.194 252.251C250.224 252.026 250.239 251.801 250.239 251.576C250.239 249.371 248.739 247.856 246.624 247.856C244.389 247.856 242.829 249.551 242.829 251.876C242.829 254.231 244.434 255.866 246.729 255.866C248.124 255.866 249.294 255.266 250.029 254.231L249.174 253.511C248.544 254.306 247.734 254.696 246.759 254.696C245.274 254.696 244.254 253.766 244.119 252.251H250.194ZM244.149 251.231C244.374 249.866 245.289 249.026 246.624 249.026C247.944 249.026 248.829 249.836 248.949 251.231H244.149ZM256.155 253.706C256.155 255.071 256.965 255.776 258.465 255.776C258.945 255.776 259.395 255.716 259.83 255.581V254.531C259.395 254.621 258.99 254.666 258.645 254.666C257.79 254.666 257.415 254.351 257.415 253.616V249.146H259.8V248.066H257.415V245.816H256.155V248.066H254.64V249.146H256.155V253.706ZM261.066 251.861C261.036 254.006 262.671 255.911 264.966 255.866C267.261 255.911 268.896 254.006 268.866 251.861C268.896 249.716 267.261 247.811 264.966 247.856C262.671 247.811 261.036 249.716 261.066 251.861ZM267.546 251.861C267.546 252.686 267.306 253.376 266.826 253.901C266.361 254.426 265.731 254.696 264.966 254.696C264.201 254.696 263.571 254.426 263.091 253.901C262.626 253.376 262.386 252.686 262.386 251.861C262.386 251.036 262.626 250.346 263.091 249.821C263.571 249.296 264.201 249.026 264.966 249.026C265.731 249.026 266.361 249.296 266.826 249.821C267.306 250.346 267.546 251.036 267.546 251.861ZM34.905 272.706C34.905 274.071 35.715 274.776 37.215 274.776C37.695 274.776 38.145 274.716 38.58 274.581V273.531C38.145 273.621 37.74 273.666 37.395 273.666C36.54 273.666 36.165 273.351 36.165 272.616V268.146H38.55V267.066H36.165V264.816H34.905V267.066H33.39V268.146H34.905V272.706ZM46.2359 267.066V268.461C45.8009 267.486 44.7059 266.856 43.4309 266.856C41.3459 266.856 39.8159 268.521 39.8159 270.861C39.8159 273.201 41.3459 274.866 43.4309 274.866C44.7059 274.866 45.8009 274.236 46.2359 273.261V274.656H47.4959V267.066H46.2359ZM46.2959 270.861C46.2959 271.686 46.0559 272.376 45.5759 272.901C45.1109 273.426 44.4809 273.696 43.7159 273.696C42.9509 273.696 42.3209 273.426 41.8409 272.901C41.3759 272.376 41.1359 271.686 41.1359 270.861C41.1359 270.036 41.3759 269.346 41.8409 268.821C42.3209 268.296 42.9509 268.026 43.7159 268.026C44.4809 268.026 45.1109 268.296 45.5759 268.821C46.0559 269.346 46.2959 270.036 46.2959 270.861ZM55.4196 274.656H56.8896L53.7096 270.666L56.8296 267.066H55.3596L52.7196 270.111H51.4596V263.676H50.1996V274.656H51.4596V271.221H52.6746L55.4196 274.656ZM65.0227 271.251C65.0527 271.026 65.0677 270.801 65.0677 270.576C65.0677 268.371 63.5677 266.856 61.4527 266.856C59.2177 266.856 57.6577 268.551 57.6577 270.876C57.6577 273.231 59.2627 274.866 61.5577 274.866C62.9527 274.866 64.1227 274.266 64.8577 273.231L64.0027 272.511C63.3727 273.306 62.5627 273.696 61.5877 273.696C60.1027 273.696 59.0827 272.766 58.9477 271.251H65.0227ZM58.9777 270.231C59.2027 268.866 60.1177 268.026 61.4527 268.026C62.7727 268.026 63.6577 268.836 63.7777 270.231H58.9777ZM76.5288 267.066V268.461C76.0938 267.486 74.9988 266.856 73.7238 266.856C71.6388 266.856 70.1088 268.521 70.1088 270.861C70.1088 273.201 71.6388 274.866 73.7238 274.866C74.9988 274.866 76.0938 274.236 76.5288 273.261V274.656H77.7888V267.066H76.5288ZM76.5888 270.861C76.5888 271.686 76.3488 272.376 75.8688 272.901C75.4038 273.426 74.7738 273.696 74.0088 273.696C73.2438 273.696 72.6138 273.426 72.1338 272.901C71.6688 272.376 71.4288 271.686 71.4288 270.861C71.4288 270.036 71.6688 269.346 72.1338 268.821C72.6138 268.296 73.2438 268.026 74.0088 268.026C74.7738 268.026 75.4038 268.296 75.8688 268.821C76.3488 269.346 76.5888 270.036 76.5888 270.861ZM90.0176 267.066L88.0826 273.111L86.0726 267.066H84.6926L82.6826 273.111L80.7476 267.066H79.4726L81.9626 274.656H83.3426L85.3826 268.506L87.4226 274.656H88.8026L91.2926 267.066H90.0176ZM98.7212 267.066V268.461C98.2862 267.486 97.1912 266.856 95.9162 266.856C93.8312 266.856 92.3012 268.521 92.3012 270.861C92.3012 273.201 93.8312 274.866 95.9162 274.866C97.1912 274.866 98.2862 274.236 98.7212 273.261V274.656H99.9812V267.066H98.7212ZM98.7812 270.861C98.7812 271.686 98.5412 272.376 98.0612 272.901C97.5962 273.426 96.9662 273.696 96.2012 273.696C95.4362 273.696 94.8062 273.426 94.3262 272.901C93.8612 272.376 93.6212 271.686 93.6212 270.861C93.6212 270.036 93.8612 269.346 94.3262 268.821C94.8062 268.296 95.4362 268.026 96.2012 268.026C96.9662 268.026 97.5962 268.296 98.0612 268.821C98.5412 269.346 98.7812 270.036 98.7812 270.861ZM107.86 267.066V271.371C107.86 272.631 106.87 273.486 105.49 273.486C104.305 273.486 103.75 272.856 103.75 271.416V267.066H102.49V271.716C102.49 273.621 103.495 274.656 105.19 274.656C106.435 274.656 107.425 274.116 107.86 273.156V273.921C107.86 275.766 106.96 276.696 105.385 276.696C104.485 276.696 103.615 276.381 103 275.826L102.265 276.726C102.97 277.446 104.14 277.866 105.415 277.866C107.755 277.866 109.12 276.486 109.12 273.921V267.066H107.86ZM111.451 273.861C111.451 274.401 111.811 274.776 112.351 274.776C112.891 274.776 113.251 274.401 113.251 273.861C113.251 273.336 112.891 272.976 112.351 272.976C111.811 272.976 111.451 273.336 111.451 273.861ZM68.3953 289.876H72.7453V288.706H68.3953V289.876ZM86.0182 293.656H87.3832L83.1082 283.156H81.6382L77.3632 293.656H78.7282L79.8532 290.806H84.8932L86.0182 293.656ZM80.3332 289.606L82.3732 284.461L84.4132 289.606H80.3332ZM89.0619 293.656H90.3219V282.676H89.0619V293.656ZM92.792 283.606C92.792 284.101 93.167 284.476 93.662 284.476C94.157 284.476 94.532 284.101 94.532 283.606C94.532 283.111 94.157 282.736 93.662 282.736C93.167 282.736 92.792 283.111 92.792 283.606ZM93.032 293.656H94.292V286.066H93.032V293.656ZM96.4614 289.861C96.4614 292.171 98.0514 293.866 100.361 293.866C101.756 293.866 102.896 293.281 103.541 292.216L102.551 291.526C102.086 292.291 101.321 292.696 100.376 292.696C99.6114 292.696 98.9814 292.441 98.5014 291.916C98.0214 291.391 97.7814 290.716 97.7814 289.861C97.7814 289.006 98.0214 288.331 98.5014 287.806C98.9814 287.281 99.6114 287.026 100.376 287.026C101.321 287.026 102.086 287.431 102.551 288.196L103.541 287.506C102.896 286.441 101.756 285.856 100.361 285.856C98.0514 285.856 96.4614 287.551 96.4614 289.861ZM112.22 290.251C112.25 290.026 112.265 289.801 112.265 289.576C112.265 287.371 110.765 285.856 108.65 285.856C106.415 285.856 104.855 287.551 104.855 289.876C104.855 292.231 106.46 293.866 108.755 293.866C110.15 293.866 111.32 293.266 112.055 292.231L111.2 291.511C110.57 292.306 109.76 292.696 108.785 292.696C107.3 292.696 106.28 291.766 106.145 290.251H112.22ZM106.175 289.231C106.4 287.866 107.315 287.026 108.65 287.026C109.97 287.026 110.855 287.836 110.975 289.231H106.175ZM113.568 295.891H114.558L115.608 291.841H114.288L113.568 295.891ZM129.598 290.821C129.598 289.486 128.818 288.556 127.453 288.241C128.578 287.836 129.208 287.011 129.208 285.871C129.208 284.236 127.933 283.156 125.908 283.156H121.528V293.656H126.268C128.323 293.656 129.598 292.546 129.598 290.821ZM125.908 284.356C127.183 284.356 127.858 284.956 127.858 286.021C127.858 287.086 127.183 287.686 125.908 287.686H122.848V284.356H125.908ZM128.218 290.671C128.218 291.796 127.543 292.456 126.268 292.456H122.848V288.886H126.268C127.543 288.886 128.218 289.546 128.218 290.671ZM131.729 290.821C131.729 292.621 133.034 293.866 134.999 293.866C136.964 293.866 138.269 292.621 138.269 290.821V286.066H137.009V290.746C137.009 292.006 136.274 292.696 134.999 292.696C133.724 292.696 132.989 292.006 132.989 290.746V286.066H131.729V290.821ZM140.095 292.216C140.695 293.236 141.94 293.866 143.485 293.866C145.345 293.866 146.47 292.921 146.47 291.481C146.47 290.416 145.825 289.741 144.325 289.396L142.99 289.096C141.97 288.856 141.625 288.571 141.625 288.076C141.625 287.401 142.195 286.996 143.275 286.996C144.22 286.996 144.985 287.311 145.48 287.896L146.35 287.146C145.735 286.321 144.67 285.856 143.35 285.856C141.505 285.856 140.365 286.771 140.365 288.106C140.365 289.171 141.115 289.861 142.675 290.221L143.875 290.491C144.835 290.716 145.21 291.031 145.21 291.571C145.21 292.276 144.55 292.726 143.47 292.726C142.435 292.726 141.55 292.321 141.01 291.541L140.095 292.216ZM148.28 283.606C148.28 284.101 148.655 284.476 149.15 284.476C149.645 284.476 150.02 284.101 150.02 283.606C150.02 283.111 149.645 282.736 149.15 282.736C148.655 282.736 148.28 283.111 148.28 283.606ZM148.52 293.656H149.78V286.066H148.52V293.656ZM159.09 288.796C159.09 286.921 158.115 285.856 156.39 285.856C155.145 285.856 154.17 286.396 153.75 287.356V286.066H152.49V293.656H153.75V289.141C153.75 287.866 154.725 287.026 156.09 287.026C157.29 287.026 157.83 287.656 157.83 289.096V293.656H159.09V288.796ZM168.558 290.251C168.588 290.026 168.603 289.801 168.603 289.576C168.603 287.371 167.103 285.856 164.988 285.856C162.753 285.856 161.193 287.551 161.193 289.876C161.193 292.231 162.798 293.866 165.093 293.866C166.488 293.866 167.658 293.266 168.393 292.231L167.538 291.511C166.908 292.306 166.098 292.696 165.123 292.696C163.638 292.696 162.618 291.766 162.483 290.251H168.558ZM162.513 289.231C162.738 287.866 163.653 287.026 164.988 287.026C166.308 287.026 167.193 287.836 167.313 289.231H162.513ZM170.007 292.216C170.607 293.236 171.852 293.866 173.397 293.866C175.257 293.866 176.382 292.921 176.382 291.481C176.382 290.416 175.737 289.741 174.237 289.396L172.902 289.096C171.882 288.856 171.537 288.571 171.537 288.076C171.537 287.401 172.107 286.996 173.187 286.996C174.132 286.996 174.897 287.311 175.392 287.896L176.262 287.146C175.647 286.321 174.582 285.856 173.262 285.856C171.417 285.856 170.277 286.771 170.277 288.106C170.277 289.171 171.027 289.861 172.587 290.221L173.787 290.491C174.747 290.716 175.122 291.031 175.122 291.571C175.122 292.276 174.462 292.726 173.382 292.726C172.347 292.726 171.462 292.321 170.922 291.541L170.007 292.216ZM177.683 292.216C178.283 293.236 179.528 293.866 181.073 293.866C182.933 293.866 184.058 292.921 184.058 291.481C184.058 290.416 183.413 289.741 181.913 289.396L180.578 289.096C179.558 288.856 179.213 288.571 179.213 288.076C179.213 287.401 179.783 286.996 180.863 286.996C181.808 286.996 182.573 287.311 183.068 287.896L183.938 287.146C183.323 286.321 182.258 285.856 180.938 285.856C179.093 285.856 177.953 286.771 177.953 288.106C177.953 289.171 178.703 289.861 180.263 290.221L181.463 290.491C182.423 290.716 182.798 291.031 182.798 291.571C182.798 292.276 182.138 292.726 181.058 292.726C180.023 292.726 179.138 292.321 178.598 291.541L177.683 292.216ZM200.95 288.766C200.95 286.906 200.035 285.856 198.355 285.856C197.08 285.856 196.075 286.471 195.67 287.431C195.31 286.411 194.47 285.856 193.315 285.856C192.16 285.856 191.23 286.396 190.81 287.341V286.066H189.55V293.656H190.81V289.141C190.81 287.866 191.71 287.026 193.015 287.026C194.14 287.026 194.62 287.641 194.62 289.066V293.656H195.88V289.141C195.88 287.866 196.78 287.026 198.085 287.026C199.21 287.026 199.69 287.641 199.69 289.066V293.656H200.95V288.766ZM209.463 286.066V287.461C209.028 286.486 207.933 285.856 206.658 285.856C204.573 285.856 203.043 287.521 203.043 289.861C203.043 292.201 204.573 293.866 206.658 293.866C207.933 293.866 209.028 293.236 209.463 292.261V293.656H210.723V286.066H209.463ZM209.523 289.861C209.523 290.686 209.283 291.376 208.803 291.901C208.338 292.426 207.708 292.696 206.943 292.696C206.178 292.696 205.548 292.426 205.068 291.901C204.603 291.376 204.363 290.686 204.363 289.861C204.363 289.036 204.603 288.346 205.068 287.821C205.548 287.296 206.178 287.026 206.943 287.026C207.708 287.026 208.338 287.296 208.803 287.821C209.283 288.346 209.523 289.036 209.523 289.861ZM220.027 288.796C220.027 286.921 219.052 285.856 217.327 285.856C216.082 285.856 215.107 286.396 214.687 287.356V286.066H213.427V293.656H214.687V289.141C214.687 287.866 215.662 287.026 217.027 287.026C218.227 287.026 218.767 287.656 218.767 289.096V293.656H220.027V288.796ZM228.55 286.066V287.461C228.115 286.486 227.02 285.856 225.745 285.856C223.66 285.856 222.13 287.521 222.13 289.861C222.13 292.201 223.66 293.866 225.745 293.866C227.02 293.866 228.115 293.236 228.55 292.261V293.656H229.81V286.066H228.55ZM228.61 289.861C228.61 290.686 228.37 291.376 227.89 291.901C227.425 292.426 226.795 292.696 226.03 292.696C225.265 292.696 224.635 292.426 224.155 291.901C223.69 291.376 223.45 290.686 223.45 289.861C223.45 289.036 223.69 288.346 224.155 287.821C224.635 287.296 225.265 287.026 226.03 287.026C226.795 287.026 227.425 287.296 227.89 287.821C228.37 288.346 228.61 289.036 228.61 289.861ZM238.394 286.066V287.446C237.959 286.471 236.864 285.856 235.589 285.856C233.504 285.856 231.974 287.461 231.974 289.756C231.974 292.051 233.504 293.656 235.589 293.656C236.894 293.656 237.959 293.056 238.394 292.096V292.786C238.394 294.706 237.449 295.696 235.709 295.696C234.644 295.696 233.684 295.321 232.979 294.676L232.259 295.606C233.039 296.401 234.284 296.866 235.709 296.866C238.229 296.866 239.654 295.426 239.654 292.786V286.066H238.394ZM238.454 289.756C238.454 290.551 238.214 291.211 237.734 291.721C237.269 292.231 236.639 292.486 235.874 292.486C235.109 292.486 234.479 292.231 233.999 291.721C233.534 291.211 233.294 290.551 233.294 289.756C233.294 288.961 233.534 288.301 233.999 287.791C234.479 287.281 235.109 287.026 235.874 287.026C236.639 287.026 237.269 287.281 237.734 287.791C238.214 288.301 238.454 288.961 238.454 289.756ZM249.183 290.251C249.213 290.026 249.228 289.801 249.228 289.576C249.228 287.371 247.728 285.856 245.613 285.856C243.378 285.856 241.818 287.551 241.818 289.876C241.818 292.231 243.423 293.866 245.718 293.866C247.113 293.866 248.283 293.266 249.018 292.231L248.163 291.511C247.533 292.306 246.723 292.696 245.748 292.696C244.263 292.696 243.243 291.766 243.108 290.251H249.183ZM243.138 289.231C243.363 287.866 244.278 287.026 245.613 287.026C246.933 287.026 247.818 287.836 247.938 289.231H243.138ZM255.612 286.051C255.417 285.976 255.177 285.946 254.922 285.946C253.797 285.946 252.957 286.516 252.612 287.491V286.066H251.352V293.656H252.612V289.771C252.612 287.986 253.467 287.116 254.952 287.116C255.177 287.116 255.387 287.131 255.612 287.161V286.051Z" fill="white"/>
<path d="M54.4224 78.663L51.0624 90.567L47.5584 78.663H44.1504L40.6464 90.591L37.3104 78.663H33.5664L38.5344 95.463H42.3744L45.8544 83.871L49.3584 95.463H53.1744L58.1664 78.663H54.4224ZM58.3042 89.343C58.3042 92.943 60.8962 95.799 64.8322 95.799C68.7682 95.799 71.3842 92.967 71.3842 89.343C71.3842 85.719 68.7682 82.887 64.8322 82.887C60.8962 82.887 58.3042 85.719 58.3042 89.343ZM67.9042 89.343C67.9042 91.383 66.7282 92.727 64.8322 92.727C62.9362 92.727 61.7602 91.383 61.7602 89.343C61.7602 87.303 62.9362 85.959 64.8322 85.959C66.7282 85.959 67.9042 87.303 67.9042 89.343ZM81.8499 83.151C81.5619 83.031 81.2259 82.983 80.8179 82.983C79.1859 82.983 77.8659 83.823 77.2659 85.239V83.223H73.9299V95.463H77.3379V89.535C77.3379 87.231 78.2739 86.247 80.3619 86.247C80.8419 86.247 81.3459 86.295 81.8499 86.391V83.151ZM85.4864 91.671C85.4864 94.455 86.7824 95.631 89.7584 95.631C90.6464 95.631 91.4624 95.535 92.2064 95.319V92.415C91.7024 92.535 91.1504 92.607 90.5504 92.607C89.3264 92.607 88.8944 92.223 88.8944 91.143V86.199H92.1584V83.223H88.8944V79.623H85.4864V83.223H83.2544V86.199H85.4864V91.671ZM106.12 87.447C106.12 84.543 104.536 82.887 101.92 82.887C100.168 82.887 98.776 83.631 98.08 84.879V77.895H94.672V95.463H98.08V88.551C98.08 86.919 99.016 85.983 100.624 85.983C102.064 85.983 102.712 86.727 102.712 88.335V95.463H106.12V87.447ZM114.257 79.383C114.257 80.607 115.097 81.423 116.369 81.423C117.641 81.423 118.481 80.607 118.481 79.383C118.481 78.159 117.641 77.343 116.369 77.343C115.097 77.343 114.257 78.159 114.257 79.383ZM114.665 95.463H118.073V83.223H114.665V95.463ZM122.447 91.671C122.447 94.455 123.743 95.631 126.719 95.631C127.607 95.631 128.423 95.535 129.167 95.319V92.415C128.663 92.535 128.111 92.607 127.511 92.607C126.287 92.607 125.855 92.223 125.855 91.143V86.199H129.119V83.223H125.855V79.623H122.447V83.223H120.215V86.199H122.447V91.671Z" fill="white"/>
<path d="M36.3415 27.0535H45.1161C46.9327 27.0535 48.4066 28.6605 48.4066 30.6414V40.2091C48.4066 42.1899 46.9327 43.797 45.1161 43.797H39.632V48.5808C39.632 51.2194 41.5994 53.3647 44.0193 53.3647H44.5677C45.4794 53.3647 46.2129 54.1645 46.2129 55.1586V58.7465C46.2129 59.7406 45.4794 60.5404 44.5677 60.5404H44.0193C37.9593 60.5404 33.051 55.1885 33.051 48.5808V30.6414C33.051 28.6605 34.5249 27.0535 36.3415 27.0535ZM56.0844 27.0535H64.8589C66.6756 27.0535 68.1494 28.6605 68.1494 30.6414V40.2091C68.1494 42.1899 66.6756 43.797 64.8589 43.797H59.3748V48.5808C59.3748 51.2194 61.3423 53.3647 63.7621 53.3647H64.3105C65.2223 53.3647 65.9558 54.1645 65.9558 55.1586V58.7465C65.9558 59.7406 65.2223 60.5404 64.3105 60.5404H63.7621C57.7022 60.5404 52.7939 55.1885 52.7939 48.5808V30.6414C52.7939 28.6605 54.2677 27.0535 56.0844 27.0535Z" fill="white"/>
<defs>
<linearGradient id="paint0_linear_1736_1589" x1="159.478" y1="0.18457" x2="159.478" y2="342.604" gradientUnits="userSpaceOnUse">
<stop offset="0.0885417" stop-color="#6C36B2"/>
<stop offset="0.875" stop-color="#007AC1"/>
</linearGradient>
</defs>
</svg>
