<svg width="101" height="32" viewBox="0 0 101 32" fill="none" xmlns="http://www.w3.org/2000/svg">
<path d="M43.1982 9.87903V18.579C43.1982 20.2 42.7487 21.4474 41.8495 22.3212C40.9631 23.195 39.6904 23.6319 38.0314 23.6319C37.1956 23.6319 36.4168 23.5179 35.6949 23.29C34.9731 23.062 34.3716 22.7454 33.8904 22.3402L35.0111 20.3456C35.4163 20.6369 35.8659 20.8585 36.3598 21.0105C36.8663 21.1751 37.3666 21.2574 37.8605 21.2574C38.7089 21.2574 39.3674 21.0232 39.836 20.5546C40.3172 20.0987 40.5578 19.4402 40.5578 18.579V17.8002C40.2919 18.3068 39.893 18.7057 39.3611 18.9969C38.8292 19.2882 38.215 19.4338 37.5185 19.4338C36.5054 19.4338 35.7013 19.1173 35.1061 18.4841C34.5235 17.8509 34.2323 16.9644 34.2323 15.8247V9.87903H36.9297V15.1218C36.9297 15.755 37.0563 16.2236 37.3096 16.5275C37.5755 16.8314 37.9871 16.9834 38.5443 16.9834C39.1522 16.9834 39.6334 16.8061 39.988 16.4515C40.3426 16.0969 40.5198 15.5967 40.5198 14.9509V9.87903H43.1982Z" fill="url(#paint0_linear_1698_2726)"/>
<path d="M50.0681 19.8328C48.6751 19.8328 47.5797 19.4782 46.7819 18.769C45.9967 18.0472 45.6042 17.0721 45.6042 15.8437V9.87903H48.3015V15.5017C48.3015 16.7681 48.8904 17.4013 50.0681 17.4013C51.2332 17.4013 51.8157 16.7681 51.8157 15.5017V9.87903H54.5131V15.8437C54.5131 17.0721 54.1205 18.0472 53.3354 18.769C52.5502 19.4782 51.4612 19.8328 50.0681 19.8328Z" fill="url(#paint1_linear_1698_2726)"/>
<path d="M66.5923 5.66199V19.5668H63.9329V18.1231C63.6543 18.655 63.2301 19.0729 62.6602 19.3769C62.0903 19.6808 61.4571 19.8328 60.7606 19.8328C59.9248 19.8328 59.1713 19.6175 58.5001 19.1869C57.8416 18.7563 57.3224 18.1548 56.9425 17.3823C56.5752 16.5972 56.3916 15.7107 56.3916 14.7229C56.3916 13.7351 56.5752 12.855 56.9425 12.0825C57.3224 11.2974 57.8416 10.6895 58.5001 10.2589C59.1713 9.82837 59.9248 9.61309 60.7606 9.61309C61.4445 9.61309 62.065 9.75872 62.6222 10.05C63.1794 10.3286 63.6036 10.7275 63.8949 11.2467V5.66199H66.5923ZM61.5584 17.4013C62.3056 17.4013 62.8945 17.1607 63.325 16.6795C63.7683 16.1856 63.9899 15.5334 63.9899 14.7229C63.9899 13.9124 63.7683 13.2666 63.325 12.7854C62.8945 12.2915 62.3056 12.0445 61.5584 12.0445C60.8113 12.0445 60.2161 12.2915 59.7728 12.7854C59.3423 13.2666 59.127 13.9124 59.127 14.7229C59.127 15.5334 59.3423 16.1856 59.7728 16.6795C60.2161 17.1607 60.8113 17.4013 61.5584 17.4013Z" fill="url(#paint2_linear_1698_2726)"/>
<path d="M70.5349 8.45435C70.0284 8.45435 69.6231 8.30872 69.3192 8.01745C69.0153 7.71352 68.8633 7.32095 68.8633 6.83972C68.8633 6.3585 69.0153 5.97225 69.3192 5.68099C69.6231 5.37706 70.0284 5.22509 70.5349 5.22509C71.0415 5.22509 71.4467 5.37706 71.7506 5.68099C72.0546 5.97225 72.2066 6.3585 72.2066 6.83972C72.2066 7.32095 72.0546 7.71352 71.7506 8.01745C71.4467 8.30872 71.0415 8.45435 70.5349 8.45435ZM69.1862 9.87903H71.8836V19.5668H69.1862V9.87903Z" fill="url(#paint3_linear_1698_2726)"/>
<path d="M86.2495 9.61309C87.2753 9.61309 88.0731 9.92968 88.643 10.5629C89.2129 11.1961 89.4978 12.0825 89.4978 13.2223V19.5668H86.8004V13.8871C86.8004 13.2666 86.6801 12.8107 86.4395 12.5194C86.1989 12.2155 85.8126 12.0635 85.2808 12.0635C84.6729 12.0635 84.198 12.2408 83.8561 12.5954C83.5142 12.9373 83.3432 13.4312 83.3432 14.0771V19.5668H80.6458V13.8871C80.6458 13.2666 80.5192 12.8107 80.2659 12.5194C80.0253 12.2155 79.639 12.0635 79.1072 12.0635C78.512 12.0635 78.0434 12.2408 77.7015 12.5954C77.3596 12.95 77.1886 13.4439 77.1886 14.0771V19.5668H74.4912V9.87903H77.1316V11.2847C77.3976 10.7782 77.7965 10.3729 78.3283 10.069C78.8602 9.76505 79.4617 9.61309 80.1329 9.61309C80.8168 9.61309 81.412 9.77139 81.9185 10.088C82.4251 10.3919 82.7923 10.8351 83.0203 11.4177C83.2735 10.8605 83.6914 10.4236 84.274 10.107C84.8565 9.77772 85.515 9.61309 86.2495 9.61309Z" fill="url(#paint4_linear_1698_2726)"/>
<path d="M100.779 9.87903V18.579C100.779 20.2 100.329 21.4474 99.4302 22.3212C98.5437 23.195 97.271 23.6319 95.612 23.6319C94.7762 23.6319 93.9974 23.5179 93.2756 23.29C92.5537 23.062 91.9522 22.7454 91.471 22.3402L92.5917 20.3456C92.997 20.6369 93.4465 20.8585 93.9404 21.0105C94.447 21.1751 94.9472 21.2574 95.4411 21.2574C96.2895 21.2574 96.9481 21.0232 97.4166 20.5546C97.8978 20.0987 98.1385 19.4402 98.1385 18.579V17.8002C97.8725 18.3068 97.4736 18.7057 96.9417 18.9969C96.4098 19.2882 95.7956 19.4338 95.0991 19.4338C94.086 19.4338 93.2819 19.1173 92.6867 18.4841C92.1042 17.8509 91.8129 16.9644 91.8129 15.8247V9.87903H94.5103V15.1218C94.5103 15.755 94.6369 16.2236 94.8902 16.5275C95.1561 16.8314 95.5677 16.9834 96.1249 16.9834C96.7328 16.9834 97.214 16.8061 97.5686 16.4515C97.9232 16.0969 98.1005 15.5967 98.1005 14.9509V9.87903H100.779Z" fill="url(#paint5_linear_1698_2726)"/>
<path d="M27.9526 15.6844C27.9539 18.4065 27.246 21.082 25.8985 23.4473C24.5511 25.8125 22.6106 27.7858 20.2683 29.1728C20.2858 29.1204 20.3006 29.0667 20.3167 29.0129C20.8336 27.1829 21.0897 25.2891 21.0773 23.3875C21.0894 20.1501 21.0773 16.9127 21.0773 13.6739V13.4885C21.0575 13.4726 21.0369 13.4578 21.0155 13.4441C20.6197 13.2765 20.1876 13.2131 19.7603 13.26C19.5876 13.2695 19.4218 13.3308 19.2846 13.4361C18.6906 13.9252 18.5482 14.3768 18.7672 15.0124C18.8379 15.2093 18.8403 15.4242 18.7739 15.6225C18.6783 15.9326 18.501 16.2111 18.2606 16.4289C17.8108 16.8506 17.2325 17.109 16.6183 17.1626C16.2636 17.1895 15.9034 17.1909 15.5809 17.0135C15.2552 16.8449 14.957 16.6279 14.6966 16.3697C14.5079 16.1773 14.3624 15.9469 14.2697 15.6939C14.177 15.4409 14.1393 15.171 14.1591 14.9022C14.1696 14.4163 14.3208 13.9439 14.5945 13.5422C14.7289 13.3474 14.8794 13.1606 15.0151 12.963C15.0749 12.8874 15.1154 12.7984 15.1334 12.7037C15.1628 12.4842 15.1402 12.261 15.0675 12.0519C14.8717 11.4671 14.4875 10.9637 13.9749 10.6206C13.6484 10.407 13.303 10.2175 12.959 10.0374C12.916 10.0047 12.8667 9.9811 12.8143 9.96815C12.7618 9.95521 12.7072 9.95316 12.6539 9.96215C12.6539 10.0361 12.6432 10.1073 12.6432 10.1799C12.6432 10.6865 12.6432 11.1931 12.6432 11.6998C12.6536 12.445 12.5632 13.1882 12.3744 13.9091C11.8812 15.6871 10.7953 16.9422 9.07787 17.6316C8.45046 17.8739 7.78972 18.019 7.1185 18.0617C6.29633 18.1385 5.46718 18.0845 4.6619 17.9018C3.87947 17.7349 3.16538 17.3364 2.61249 16.7581C2.16469 16.2616 1.83566 15.6697 1.65028 15.0272C1.39258 14.1596 1.26842 13.2579 1.28206 12.3529C1.28206 9.73773 1.28206 7.12389 1.28206 4.5114C4.21124 1.61664 8.16479 -0.0046719 12.283 1.01123e-05C12.4053 1.01123e-05 12.5276 1.01123e-05 12.6499 1.01123e-05C12.6499 2.93772 12.6499 5.87408 12.6499 8.80911C12.6499 8.85748 12.6499 8.90587 12.6499 8.95559C12.6468 8.98594 12.655 9.01636 12.6728 9.04111C12.6906 9.06586 12.7169 9.08324 12.7466 9.08998C12.8689 9.12895 12.9899 9.16927 13.1082 9.22437C13.5538 9.40945 13.9782 9.64193 14.3741 9.9178C15.2718 10.5427 15.8725 11.3598 15.9518 12.4913C15.9833 12.8177 15.8917 13.1441 15.6951 13.4065L15.343 13.8742C15.1049 14.1884 14.9748 14.5712 14.9721 14.9654C14.9503 15.2114 15.0165 15.4571 15.1589 15.6588C15.3214 15.8652 15.5199 16.0405 15.7448 16.1762C15.9147 16.2975 16.118 16.3633 16.3267 16.3644C16.5955 16.355 16.8643 16.3644 17.1116 16.23C17.3243 16.1096 17.5286 15.9749 17.723 15.8268C17.8041 15.7707 17.8677 15.693 17.9067 15.6024C17.9457 15.5119 17.9584 15.4122 17.9434 15.3148C17.9259 15.1804 17.8964 15.038 17.8762 14.8982C17.8144 14.4547 17.8198 14.026 18.0509 13.6188C18.5428 12.7507 19.3464 12.3233 20.3463 12.4591C20.5868 12.4913 20.8247 12.537 21.0746 12.5773V2.70523C23.1952 4.14111 24.9311 6.07526 26.1302 8.33811C27.3294 10.601 27.9551 13.1234 27.9526 15.6844Z" fill="url(#paint6_linear_1698_2726)"/>
<path d="M18.0267 29.7064C18.0256 29.9216 17.976 30.1338 17.8816 30.3272C17.105 30.6257 16.3054 30.8608 15.4908 31.0301C15.6868 30.8412 15.9142 30.688 16.1628 30.5772C16.41 30.4428 16.6627 30.3245 16.9127 30.1969C16.9984 30.1551 17.0714 30.0912 17.1243 30.0119C17.1772 29.9325 17.2081 29.8405 17.2137 29.7453C17.2251 29.6606 17.2251 29.5747 17.2137 29.49C17.1779 29.2609 17.1299 29.0339 17.0699 28.81C17.0158 28.6219 16.9225 28.4473 16.7963 28.2977C16.6701 28.1481 16.5138 28.0269 16.3375 27.9418C15.8362 27.6731 15.3323 27.7322 14.8592 27.9418C14.6651 28.0153 14.4995 28.1487 14.3864 28.3227C14.2733 28.4967 14.2186 28.7022 14.2303 28.9094C14.237 29.0935 14.2383 29.2763 14.2303 29.4591C14.2252 29.6066 14.2063 29.7532 14.1738 29.8972C14.138 30.0337 14.0622 30.1565 13.9561 30.2496C13.85 30.3428 13.7185 30.4021 13.5785 30.42C13.3817 30.4524 13.1802 30.4432 12.9872 30.3929C12.7942 30.3427 12.6138 30.2526 12.4577 30.1283C12.0568 29.8378 11.681 29.5141 11.3342 29.1607C11.2361 29.0559 11.13 28.9578 11.0225 28.8516C10.9889 28.8879 10.9633 28.9148 10.9405 28.9417C10.3548 29.6263 9.64197 30.1909 8.84135 30.6041C8.6653 30.6954 8.48791 30.7801 8.3038 30.8567C5.02334 29.997 2.10985 28.0972 0 25.4422C0.672825 25.6138 1.35955 25.7254 2.0521 25.7755C2.87509 25.8382 3.70196 25.8297 4.52348 25.75C5.29123 25.6843 6.05062 25.5429 6.7906 25.328C9.32514 24.5633 11.3598 23.1469 12.6687 20.7951C12.6985 20.7576 12.7313 20.7225 12.7668 20.6903V20.9322C12.7668 21.6444 12.7668 22.3607 12.7668 23.0824C12.7708 23.8028 12.7128 24.5222 12.5934 25.2326C12.4336 26.2282 12.0895 27.1853 11.5788 28.0547C11.5535 28.1024 11.5306 28.1512 11.5103 28.2012C11.8167 28.4955 12.115 28.7925 12.4268 29.0761C12.606 29.2325 12.7936 29.3792 12.9885 29.5155C13.0457 29.5657 13.1146 29.6006 13.1888 29.6171C13.263 29.6335 13.3402 29.6309 13.4132 29.6096C13.4132 29.5518 13.4226 29.4927 13.424 29.4322C13.424 29.2306 13.4146 29.029 13.424 28.8275C13.4283 28.6632 13.4554 28.5004 13.5046 28.3437C13.6026 28.0458 13.7727 27.7768 13.9996 27.5605C14.2265 27.3441 14.5033 27.187 14.8055 27.1033C15.1015 27.0299 15.4039 26.9849 15.7085 26.9689C16.0149 26.9393 16.2945 27.0589 16.574 27.1691C17.0649 27.3592 17.4657 27.7279 17.6961 28.2012C17.9272 28.6685 18.0407 29.1852 18.0267 29.7064Z" fill="url(#paint7_linear_1698_2726)"/>
<defs>
<linearGradient id="paint0_linear_1698_2726" x1="2317.66" y1="5986.22" x2="4735.56" y2="5986.22" gradientUnits="userSpaceOnUse">
<stop stop-color="#4B1980"/>
<stop offset="1" stop-color="#3C11BA"/>
</linearGradient>
<linearGradient id="paint1_linear_1698_2726" x1="2317.66" y1="5986.22" x2="4735.56" y2="5986.22" gradientUnits="userSpaceOnUse">
<stop stop-color="#4B1980"/>
<stop offset="1" stop-color="#3C11BA"/>
</linearGradient>
<linearGradient id="paint2_linear_1698_2726" x1="2317.66" y1="5986.22" x2="4735.56" y2="5986.22" gradientUnits="userSpaceOnUse">
<stop stop-color="#4B1980"/>
<stop offset="1" stop-color="#3C11BA"/>
</linearGradient>
<linearGradient id="paint3_linear_1698_2726" x1="2317.66" y1="5986.22" x2="4735.56" y2="5986.22" gradientUnits="userSpaceOnUse">
<stop stop-color="#4B1980"/>
<stop offset="1" stop-color="#3C11BA"/>
</linearGradient>
<linearGradient id="paint4_linear_1698_2726" x1="2317.66" y1="5986.22" x2="4735.56" y2="5986.22" gradientUnits="userSpaceOnUse">
<stop stop-color="#4B1980"/>
<stop offset="1" stop-color="#3C11BA"/>
</linearGradient>
<linearGradient id="paint5_linear_1698_2726" x1="2317.66" y1="5986.22" x2="4735.56" y2="5986.22" gradientUnits="userSpaceOnUse">
<stop stop-color="#4B1980"/>
<stop offset="1" stop-color="#3C11BA"/>
</linearGradient>
<linearGradient id="paint6_linear_1698_2726" x1="2317.66" y1="5986.22" x2="4735.56" y2="5986.22" gradientUnits="userSpaceOnUse">
<stop stop-color="#4B1980"/>
<stop offset="1" stop-color="#3C11BA"/>
</linearGradient>
<linearGradient id="paint7_linear_1698_2726" x1="2317.66" y1="5986.22" x2="4735.56" y2="5986.22" gradientUnits="userSpaceOnUse">
<stop stop-color="#4B1980"/>
<stop offset="1" stop-color="#3C11BA"/>
</linearGradient>
</defs>
</svg>
