<svg width="36" height="34" viewBox="0 0 36 34" fill="none" xmlns="http://www.w3.org/2000/svg">
<path d="M3.34152 0.0534668H12.1161C13.9327 0.0534668 15.4066 1.66054 15.4066 3.64136V13.2091C15.4066 15.1899 13.9327 16.797 12.1161 16.797H6.63199V21.5808C6.63199 24.2194 8.59942 26.3647 11.0193 26.3647H11.5677C12.4794 26.3647 13.2129 27.1645 13.2129 28.1586V31.7465C13.2129 32.7406 12.4794 33.5404 11.5677 33.5404H11.0193C4.95934 33.5404 0.0510483 28.1885 0.0510483 21.5808V3.64136C0.0510483 1.66054 1.52491 0.0534668 3.34152 0.0534668ZM23.0844 0.0534668H31.8589C33.6756 0.0534668 35.1494 1.66054 35.1494 3.64136V13.2091C35.1494 15.1899 33.6756 16.797 31.8589 16.797H26.3748V21.5808C26.3748 24.2194 28.3423 26.3647 30.7621 26.3647H31.3105C32.2223 26.3647 32.9558 27.1645 32.9558 28.1586V31.7465C32.9558 32.7406 32.2223 33.5404 31.3105 33.5404H30.7621C24.7022 33.5404 19.7939 28.1885 19.7939 21.5808V3.64136C19.7939 1.66054 21.2677 0.0534668 23.0844 0.0534668Z" fill="white"/>
</svg>
